<?xml version="1.0" encoding="utf-8" ?>
<svg baseProfile="full" height="300mm" version="1.1" viewBox="0,0,200,300" width="200mm" xmlns="http://www.w3.org/2000/svg" xmlns:ev="http://www.w3.org/2001/xml-events" xmlns:xlink="http://www.w3.org/1999/xlink"><defs /><rect fill="#222222" height="300" width="200" x="0" y="0" /><text fill="#FFFFFF" style="font-size:12px; font-family:Arial; font-weight:bold;" x="10" y="20">Over 3km Runs</text><text fill="#FFFFFF" style="font-size:4px; font-family:Arial" x="10" y="280">ATHLETE</text><text fill="#FFFFFF" style="font-size:9px; font-family:Arial" x="10" y="290">Lynx</text><text fill="#FFFFFF" style="font-size:4px; font-family:Arial" x="120" y="280">STATISTICS</text><text fill="#FFFFFF" style="font-size:3px; font-family:Arial" x="120" y="285">Number: 4</text><text fill="#FFFFFF" style="font-size:3px; font-family:Arial" x="120" y="290">Weekly: 2.0</text><text fill="#FFFFFF" style="font-size:3px; font-family:Arial" x="141" y="285">Total: 15.3 km</text><text fill="#FFFFFF" style="font-size:3px; font-family:Arial" x="141" y="290">Avg: 3.8 km</text><text fill="#FFFFFF" style="font-size:3px; font-family:Arial" x="167" y="285">Min: 3.0 km</text><text fill="#FFFFFF" style="font-size:3px; font-family:Arial" x="167" y="290">Max: 4.8 km</text><polyline fill="none" points="80.59532734192908,86.9118692567572 81.57038743421435,82.67658092826605 82.05791747756302,80.55893582571298 82.54544752277434,78.4412900954485 83.03297756798565,74.7354085650295 82.54544752277434,72.6177611160092 82.05791747756302,70.50011304020882 82.05791747756302,68.382464338094 82.05791747756302,66.26481501059607 82.54544752277434,63.61775247193873 82.54544752277434,61.50010173674673 82.54544752277434,57.264798387885094 82.54544752277434,54.617732523940504 82.05791747756302,52.500079127494246 80.10779730044305,48.26477045984939 78.64520716667175,46.1471151872538 77.18261703290045,44.55887332186103 74.74496680870652,40.85297426721081 71.3322564959526,39.26473122835159 69.38213631696999,38.2059023398906 67.43201613985002,37.67648783745244 64.01930582523346,36.08824409497902 57.68141524679959,38.2059023398906 51.34352466650307,42.4412169540301 49.3934044893831,44.02945928927511 47.44328430853784,47.735356701072305 46.468224219977856,50.38242510706186 46.468224219977856,51.97066568210721 45.49316413141787,54.088319233153015 45.005634086206555,56.20597215881571 44.518104042857885,58.32362446002662 44.03057399764657,60.970688953995705 43.543043952435255,69.44128876645118 42.56798386387527,76.32364374166355 41.592923775315285,83.7354032448493 41.592923775315285,87.97069094795734 42.080453818663955,92.20597614813596 42.56798386387527,100.1471291501075 43.543043952435255,103.8529975390993 44.03057399764657,107.55886401189491 49.3934044893831,114.97059120843187 53.29364484548569,115.5 61.094125559553504,114.97059120843187 64.50683587230742,113.91177350655198 68.40707622841,112.32354666199535 74.2574367634952,110.20591031946242 77.18261703290045,107.55886401189491 79.6202672533691,102.79417819483206 79.6202672533691,100.1471291501075 80.10779730044305,96.97066900599748 83.52050760947168,89.02951248176396 84.00803765654564,86.38245835388079 84.49556770175695,83.7354032448493 84.49556770175695,80.55893582571298 84.98309774510562,77.91187856718898 84.98309774510562,71.02952511701733 84.98309774510562,67.32363975280896 84.98309774510562,64.67657760437578 85.47062779031694,62.5589271816425 85.47062779031694,60.44127613352612 84.49556770175695,54.617732523940504 83.52050760947168,52.500079127494246 82.05791747756302,49.85301150428131 79.13273721002042,44.55887332186103 76.20755694247782,42.4412169540301 70.84472645260394,38.735316805075854 68.40707622841,38.2059023398906 66.45695604942739,37.67648783745244 62.556715693324804,37.67648783745244 59.631535425782204,38.2059023398906 57.19388520158827,39.79414561390877 53.29364484548569,41.911802764981985 51.34352466650307,44.02945928927511 48.41834439896047,47.735356701072305 47.44328430853784,49.85301150428131 46.468224219977856,52.500079127494246 45.98069417476654,54.088319233153015 45.49316413141787,55.67655898677185 44.518104042857885,58.32362446002662 43.543043952435255,63.0883398456499 43.543043952435255,66.26481501059607 43.055513909086585,68.91187657276168 43.055513909086585,71.55893715610728 42.56798386387527,76.85305538820103 42.080453818663955,80.02952445112169 41.592923775315285,82.67658092826605 41.592923775315285,85.32363642612472 41.592923775315285,87.4412801223807 41.592923775315285,92.73538662074134 42.080453818663955,95.38243840495124 42.080453818663955,98.0294892094098 42.56798386387527,100.67653903737664 44.518104042857885,104.9118167264387 45.98069417476654,107.02945463359356 49.3934044893831,110.20591031946242 51.34352466650307,111.26472856942564 55.73129506781697,113.3823645976372 57.68141524679959,113.3823645976372 60.119065469130874,113.3823645976372 64.50683587230742,112.85295564867556 66.94448609277606,111.79413763433695 68.89460627362132,110.7353194640018 71.81978654116392,108.61768265161663 77.67014707624912,105.44122626259923 79.6202672533691,102.26476846449077 80.59532734192908,99.6177192227915 81.08285738900304,97.50007912656292 81.08285738900304,94.85302812652662 82.05791747756302,92.20597614813596 83.03297756798565,86.9118692567572 83.52050760947168,84.26481434470043 83.03297756798565,82.67658092826605 84.00803765654564,77.38246699701995 84.49556770175695,74.20599676202983 85.47062779031694,67.85305206431076 84.98309774510562,62.02951447851956 86.44568787887692,56.735385292675346 85.47062779031694,51.97066568210721 83.03297756798565,50.38242510706186 81.57038743421435,48.26477045984939 79.13273721002042,46.1471151872538 73.76990671828389,41.911802764981985 71.3322564959526,40.85297426721081 63.531775783747435,38.2059023398906 60.119065469130874,35.55882943607867 60.119065469130874,34.5 50.36846457608044,43.50004521664232 48.41834439896047,47.735356701072305 46.955754267051816,53.02949253609404 45.98069417476654,56.20597215881571 45.005634086206555,58.85303743602708 44.518104042857885,60.970688953995705 43.543043952435255,65.7354025808163 43.543043952435255,67.85305206431076 43.055513909086585,70.50011304020882 42.56798386387527,72.6177611160092 42.56798386387527,74.7354085650295 42.080453818663955,79.50011303974316 41.592923775315285,82.14716971106827 41.592923775315285,84.79422540543601 41.10539373010397,87.4412801223807 41.10539373010397,90.08833386050537 41.10539373010397,95.38243840495124 43.055513909086585,100.1471291501075 44.518104042857885,102.79417819483206 46.468224219977856,105.44122626259923 47.9308143556118,107.55886401189491 51.83105471171439,111.26472856942564 54.26870493218303,112.32354666199535 56.21882511302829,113.3823645976372 61.094125559553504,113.91177350655198 63.531775783747435,113.3823645976372 65.96942600607872,112.85295564867556 69.8696663621813,111.79413763433695 74.74496680870652,109.6765011367388 77.18261703290045,108.08827335154638 78.15767711959779,106.50004521524534 81.57038743421435,102.26476846449077 82.05791747756302,99.08830925822258 82.54544752277434,96.44125884445384 83.52050760947168,93.79420745233074 83.52050760947168,91.67656563501805 84.98309774510562,82.67658092826605 84.98309774510562,79.50011303974316 84.49556770175695,75.79423205647618 84.98309774510562,69.44128876645118 85.47062779031694,66.79422740219161 85.47062779031694,64.67657760437578 84.49556770175695,58.85303743602708 84.49556770175695,55.67655898677185 84.00803765654564,53.02949253609404 84.49556770175695,50.91183867165819 83.03297756798565,47.735356701072305 80.10779730044305,45.08828731626272 77.18261703290045,42.97063110442832 71.3322564959526,40.85297426721081 68.89460627362132,39.79414561390877 61.094125559553504,40.323559960816056 58.65647533535957,41.911802764981985 55.73129506781697,43.50004521664232 53.781174890697,45.08828731626272 49.88093453273177,48.79418417997658 48.41834439896047,51.97066568210721 47.44328430853784,54.088319233153015 46.468224219977856,56.20597215881571 45.98069417476654,58.32362446002662 44.03057399764657,63.0883398456499 44.03057399764657,65.7354025808163 43.055513909086585,67.85305206431076 43.055513909086585,70.50011304020882 42.56798386387527,73.67658491805196 42.56798386387527,79.50011303974316 42.080453818663955,82.67658092826605 41.592923775315285,85.32363642612472 41.10539373010397,91.1471550827846 42.080453818663955,95.911848643329 42.56798386387527,98.0294892094098 43.055513909086585,100.1471291501075 45.49316413141787,103.8529975390993 46.468224219977856,105.44122626259923 47.9308143556118,107.02945463359356 51.34352466650307,109.6765011367388 53.29364484548569,111.26472856942564 56.21882511302829,112.85295564867556 61.094125559553504,113.3823645976372 63.531775783747435,113.3823645976372 66.45695604942739,113.3823645976372 68.89460627362132,112.85295564867556 73.76990671828389,110.7353194640018 75.72002689726651,109.14709191396832 77.67014707624912,107.55886401189491 79.13273721002042,105.44122626259923 79.6202672533691,104.38240715302527 80.10779730044305,102.26476846449077 81.08285738900304,99.08830925822258 81.57038743421435,95.38243840495124 82.05791747756302,90.08833386050537 82.54544752277434,87.97069094795734 83.03297756798565,83.7354032448493 82.54544752277434,81.08834716118872 82.54544752277434,78.97070158738643 82.05791747756302,74.20599676202983 83.03297756798565,72.6177611160092 83.52050760947168,70.50011304020882 84.00803765654564,68.91187657276168 84.49556770175695,67.32363975280896 84.98309774510562,65.2059901128523 85.47062779031694,63.0883398456499 86.93321792408824,58.85303743602708 87.90827801264822,56.735385292675346 85.95815783366561,53.02949253609404 84.98309774510562,51.44125219574198 84.00803765654564,49.85301150428131 80.59532734192908,47.20594290178269 78.64520716667175,45.08828731626272 74.2574367634952,42.4412169540301 72.30731658451259,41.382388535887 69.38213631696999,40.323559960816056 63.531775783747435,38.735316805075854 55.2437650244683,40.85297426721081 46.468224219977856,54.088319233153015 46.468224219977856,57.79421144258231 42.56798386387527,69.44128876645118 42.080453818663955,73.67658491805196 42.080453818663955,83.7354032448493 42.080453818663955,93.79420745233074 43.543043952435255,102.26476846449077 45.98069417476654,108.61768265161663 48.41834439896047,111.26472856942564 53.781174890697,114.44118237681687 57.68141524679959,114.44118237681687 61.094125559553504,113.91177350655198 64.01930582523346,112.85295564867556 71.81978654116392,111.79413763433695 74.2574367634952,110.7353194640018 76.20755694247782,109.6765011367388 78.64520716667175,107.02945463359356 79.6202672533691,104.9118167264387 81.08285738900304,103.32358788652346 82.05791747756302,99.6177192227915 83.52050760947168,96.44125884445384 84.00803765654564,94.85302812652662 84.00803765654564,93.26479705655947 84.00803765654564,89.02951248176396 84.00803765654564,83.7354032448493 84.98309774510562,80.55893582571298 84.98309774510562,77.38246699701995 84.98309774510562,69.44128876645118 84.49556770175695,66.26481501059607 84.00803765654564,63.61775247193873 83.52050760947168,55.14714577421546 81.57038743421435,49.32359786238521 80.10779730044305,47.20594290178269 75.23249685205519,42.97063110442832 63.531775783747435,35.02941473852843 55.73129506781697,38.2059023398906 46.955754267051816,47.20594290178269 45.98069417476654,49.85301150428131 44.518104042857885,55.67655898677185 45.005634086206555,58.32362446002662 43.543043952435255,63.61775247193873 43.055513909086585,67.32363975280896 42.56798386387527,72.6177611160092 42.080453818663955,75.79423205647618 41.592923775315285,78.4412900954485 41.592923775315285,81.08834716118872 41.10539373010397,83.7354032448493 41.10539373010397,86.9118692567572 41.10539373010397,92.73538662074134 41.592923775315285,94.85302812652662 41.592923775315285,98.0294892094098 43.543043952435255,103.32358788652346 44.518104042857885,104.9118167264387 47.44328430853784,108.61768265161663 49.3934044893831,109.6765011367388 51.83105471171439,111.26472856942564 56.70635515637696,113.3823645976372 58.65647533535957,113.91177350655198 64.01930582523346,114.44118237681687 66.45695604942739,113.91177350655198 68.89460627362132,113.3823645976372 73.28237667493522,111.26472856942564 76.69508698582649,108.08827335154638 78.15767711959779,106.50004521524534 79.13273721002042,104.9118167264387 80.10779730044305,100.1471291501075 80.10779730044305,96.97066900599748 80.59532734192908,93.79420745233074 81.08285738900304,90.61774449050426 82.05791747756302,82.14716971106827 82.54544752277434,79.50011303974316 83.52050760947168,73.14717303588986 84.00803765654564,69.44128876645118 84.49556770175695,65.7354025808163 84.98309774510562,59.38245037430897 84.49556770175695,53.02949253609404 83.52050760947168,50.91183867165819 83.52050760947168,48.79418417997658 79.6202672533691,44.02945928927511 73.76990671828389,40.85297426721081 70.84472645260394,40.323559960816056 67.91954618319869,39.79414561390877 61.581655602902174,38.2059023398906 55.73129506781697,39.26473122835159 53.29364484548569,41.382388535887 46.468224219977856,51.44125219574198 45.49316413141787,53.02949253609404 44.518104042857885,56.20597215881571 43.543043952435255,62.5589271816425 43.543043952435255,65.7354025808163 43.055513909086585,70.50011304020882 42.56798386387527,73.67658491805196 42.080453818663955,76.85305538820103 42.56798386387527,81.61775845475495 43.543043952435255,86.9118692567572 43.543043952435255,89.55892319139093 43.055513909086585,92.20597614813596 42.56798386387527,94.85302812652662 43.543043952435255,99.6177192227915 44.03057399764657,101.73535869503394 45.49316413141787,105.97063575917855 47.9308143556118,109.14709191396832 50.8559946231544,110.7353194640018 53.781174890697,112.85295564867556 61.581655602902174,113.91177350655198 68.89460627362132,112.32354666199535 72.30731658451259,111.26472856942564 75.72002689726651,109.6765011367388 81.08285738900304,105.97063575917855 83.52050760947168,103.8529975390993 85.47062779031694,103.32358788652346 85.95815783366561,99.6177192227915 85.95815783366561,96.97066900599748 85.47062779031694,94.32361780805513 85.47062779031694,89.55892319139093 85.47062779031694,85.32363642612472 85.47062779031694,83.7354032448493 85.47062779031694,81.61775845475495 84.98309774510562,79.50011303974316 84.98309774510562,76.85305538820103 84.98309774510562,74.7354085650295 84.98309774510562,69.44128876645118 84.98309774510562,66.79422740219161 84.49556770175695,64.14716505724937 84.49556770175695,61.50010173674673 84.00803765654564,58.85303743602708 83.03297756798565,53.55890590324998 81.57038743421435,51.44125219574198 79.13273721002042,47.735356701072305 77.67014707624912,46.1471151872538 76.20755694247782,44.55887332186103 72.30731658451259,41.911802764981985 70.35719640739262,40.85297426721081 67.91954618319869,40.323559960816056 65.48189595900476,39.79414561390877 60.606595516204834,39.79414561390877 58.65647533535957,40.323559960816056 56.21882511302829,40.85297426721081 51.83105471171439,42.4412169540301 50.36846457608044,44.02945928927511 48.41834439896047,45.61770127154887 46.955754267051816,49.85301150428131 46.468224219977856,51.44125219574198 46.468224219977856,53.55890590324998 46.468224219977856,56.20597215881571 46.468224219977856,58.32362446002662 46.468224219977856,60.44127613352612 46.468224219977856,62.5589271816425 45.49316413141787,66.79422740219161 44.518104042857885,68.382464338094 44.03057399764657,69.97070092242211 43.055513909086585,72.08834915608168 42.56798386387527,73.67658491805196 41.592923775315285,77.91187856718898 41.592923775315285,80.02952445112169 41.592923775315285,82.67658092826605 41.10539373010397,84.79422540543601 41.10539373010397,87.4412801223807 41.10539373010397,89.55892319139093 41.592923775315285,94.32361780805513 43.055513909086585,98.5588992536068 44.03057399764657,101.20594888506457 45.005634086206555,103.32358788652346 46.468224219977856,105.44122626259923 49.3934044893831,108.61768265161663 50.8559946231544,110.7353194640018 52.80611480027437,111.79413763433695 57.19388520158827,114.44118237681687 59.14400538057089,114.97059120843187 64.99436591751873,115.5 67.43201613985002,114.97059120843187 72.30731658451259,112.32354666199535 76.20755694247782,109.14709191396832 82.05791747756302,104.9118167264387 85.95815783366561,99.6177192227915 86.44568787887692,95.38243840495124 86.44568787887692,88.50010173441842 85.95815783366561,85.32363642612472 85.47062779031694,81.61775845475495 85.47062779031694,78.4412900954485 85.95815783366561,67.85305206431076 85.95815783366561,64.67657760437578 85.95815783366561,60.970688953995705 85.47062779031694,54.617732523940504 83.03297756798565,48.26477045984939 78.64520716667175,43.50004521664232 75.72002689726651,41.382388535887 72.7948466297239,39.79414561390877 69.38213631696999,38.735316805075854 63.531775783747435,36.61765871569514 61.581655602902174,37.67648783745244 54.75623497925699,40.323559960816056 52.80611480027437,42.4412169540301 50.8559946231544,43.50004521664232 47.9308143556118,46.67652906430885 47.44328430853784,48.79418417997658 47.44328430853784,50.91183867165819 46.468224219977856,53.02949253609404 45.98069417476654,54.617732523940504 45.49316413141787,58.32362446002662 45.49316413141787,60.44127613352612 45.005634086206555,63.0883398456499 44.518104042857885,65.2059901128523 44.03057399764657,67.85305206431076 44.03057399764657,69.97070092242211 44.03057399764657,74.7354085650295 43.543043952435255,77.38246699701995 43.055513909086585,80.02952445112169 42.56798386387527,82.14716971106827 42.080453818663955,84.79422540543601 42.080453818663955,86.9118692567572 41.10539373010397,91.67656563501805 41.592923775315285,93.79420745233074 41.592923775315285,96.44125884445384 43.055513909086585,101.20594888506457 44.518104042857885,103.32358788652346 46.955754267051816,105.97063575917855 48.41834439896047,107.02945463359356 49.88093453273177,108.08827335154638 51.83105471171439,109.14709191396832 54.26870493218303,110.20591031946242 56.70635515637696,111.79413763433695 62.069185649976134,113.3823645976372 64.99436591751873,113.3823645976372 67.91954618319869,113.3823645976372 70.84472645260394,112.85295564867556 77.67014707624912,109.6765011367388 79.13273721002042,108.08827335154638 80.10779730044305,105.97063575917855 82.05791747756302,102.26476846449077 83.03297756798565,100.67653903737664 83.03297756798565,98.5588992536068 83.52050760947168,95.38243840495124 84.00803765654564,93.79420745233074 84.00803765654564,91.67656563501805 84.00803765654564,89.55892319139093 84.00803765654564,87.97069094795734 84.00803765654564,85.85304741002619 84.49556770175695,83.7354032448493 84.98309774510562,79.50011303974316 84.98309774510562,77.38246699701995 85.47062779031694,74.7354085650295 85.47062779031694,72.6177611160092 85.95815783366561,69.97070092242211 86.44568787887692,64.67657760437578 86.44568787887692,60.970688953995705 80.10779730044305,44.55887332186103 70.84472645260394,39.26473122835159 49.88093453273177,42.97063110442832 44.518104042857885,56.735385292675346 41.592923775315285,69.44128876645118 42.080453818663955,73.67658491805196 42.56798386387527,78.4412900954485 36.23009328357875,82.67658092826605 32.32985292561352,87.97069094795734 32.32985292561352,92.73538662074134 25.99196234717965,101.73535869503394 24.041842168197036,103.32358788652346 22.09172198921442,104.9118167264387 22.09172198921442,104.9118167264387 22.579252034425735,104.9118167264387 22.579252034425735,104.9118167264387 22.579252034425735,104.9118167264387 22.579252034425735,104.9118167264387 30.379732748493552,103.8529975390993 31.842322884127498,107.02945463359356 38.18021346256137,107.55886401189491 42.56798386387527,109.6765011367388 44.518104042857885,110.20591031946242 45.98069417476654,111.26472856942564 47.9308143556118,112.32354666199535 49.3934044893831,112.85295564867556 51.83105471171439,113.3823645976372 57.19388520158827,115.5 65.96942600607872,115.5 70.35719640739262,113.3823645976372 72.30731658451259,112.32354666199535 74.2574367634952,111.26472856942564 77.18261703290045,108.08827335154638 78.64520716667175,106.50004521524534 79.6202672533691,105.44122626259923 80.10779730044305,102.26476846449077 80.59532734192908,100.1471291501075 80.10779730044305,98.5588992536068 81.08285738900304,94.85302812652662 81.08285738900304,92.73538662074134 81.57038743421435,91.1471550827846 81.57038743421435,89.02951248176396 81.57038743421435,87.4412801223807 82.05791747756302,85.32363642612472 82.54544752277434,82.67658092826605 82.05791747756302,76.85305538820103 82.54544752277434,73.67658491805196 83.03297756798565,71.02952511701733 83.03297756798565,67.85305206431076 83.03297756798565,61.50010173674673 83.52050760947168,58.85303743602708 82.54544752277434,53.02949253609404 79.6202672533691,48.26477045984939 78.15767711959779,46.1471151872538 76.69508698582649,44.02945928927511 72.7948466297239,41.382388535887 71.3322564959526,40.323559960816056 69.38213631696999,39.79414561390877 64.99436591751873,38.2059023398906 63.044245736673474,38.2059023398906 61.094125559553504,38.2059023398906 56.70635515637696,38.2059023398906 54.75623497925699,39.26473122835159 50.36846457608044,41.911802764981985 47.9308143556118,45.61770127154887 46.955754267051816,49.85301150428131 46.468224219977856,51.97066568210721 46.468224219977856,54.617732523940504 46.468224219977856,56.735385292675346 46.468224219977856,58.85303743602708 45.98069417476654,63.61775247193873 45.005634086206555,67.85305206431076 44.518104042857885,69.97070092242211 44.03057399764657,72.08834915608168 43.055513909086585,74.20599676202983 43.055513909086585,76.32364374166355 42.080453818663955,78.4412900954485 41.592923775315285,82.14716971106827 41.592923775315285,83.7354032448493 41.10539373010397,85.85304741002619 41.10539373010397,87.97069094795734 40.6178636867553,90.08833386050537 41.10539373010397,94.85302812652662 41.592923775315285,97.50007912656292 43.543043952435255,102.26476846449077 44.518104042857885,104.38240715302527 47.9308143556118,108.08827335154638 49.88093453273177,109.14709191396832 53.29364484548569,111.79413763433695 55.2437650244683,112.32354666199535 57.19388520158827,113.3823645976372 61.094125559553504,112.85295564867556 59.631535425782204,112.32354666199535 58.1689452920109,111.79413763433695 58.1689452920109,111.79413763433695 71.81978654116392,111.26472856942564 81.08285738900304,105.97063575917855" stroke="#ff0000" stroke-linecap="round" stroke-linejoin="round" stroke-width="0.5"><title>2020-12-14 4.8km</title></polyline><polyline fill="none" points="165.45317725697532,47.788798722438514 165.6337792640552,48.47522290342022 165.45317725697532,49.06358620431274 165.9949832772836,49.75000972568523 165.8143812706694,50.436432892107405 165.7240802673623,50.82867454213556 165.6337792640552,51.22091607609764 165.45317725697532,52.00539879640564 165.0919732437469,52.29957969696261 164.82107023429126,52.69182079611346 164.64046822674572,52.98600154463202 164.36956521729007,53.37824244087096 164.27926421398297,53.57436284550931 164.00836120406166,53.86854339845013 163.64715719036758,54.55496443447191 163.3762541799806,54.94720486737788 163.19565217383206,55.339445183984935 162.92474916344509,55.73168538487516 162.74414715729654,56.1239254695829 162.29264214029536,56.90840529173147 162.20234113698825,57.30064502870664 162.1120401332155,57.69288464996498 161.93143812706694,58.1831840131199 161.75083611998707,58.477363544283435 161.75083611998707,58.869602817692794 161.2993311029859,59.45796151040122 160.75752508360893,59.94826022174675 160.57692307652906,60.43855875195004 160.39632106991485,60.8307974456111 160.21571906330064,61.22303602367174 159.85451505007222,61.615274485433474 159.4933110368438,62.595870132907294 158.95150501653552,63.38034612929914 158.7709030099213,63.772583953570575 158.5903010033071,64.16482166200876 158.31939799292013,64.55705925438087 158.13879598630592,64.85123737272806 157.9581939796917,65.14541542576626 157.5969899664633,65.831830629264 157.4163879598491,66.51824547769502 157.23578595276922,67.30271915579215 157.4163879598491,67.98913324356545 156.8745819395408,68.57748789340258 156.6036789296195,68.96972418169025 156.24247491639107,69.36196035402827 155.7006688960828,70.0483733768342 155.52006688946858,70.44060923042707 155.33946488285437,70.734786044457 154.97826086962596,71.32313947717194 154.88795986631885,71.71537495416123 154.70735785923898,72.00955148553476 154.52675585309044,72.40178675961215 154.34615384601057,72.69596313906368 154.16555183939636,73.48043316556141 154.16555183939636,73.9707266963087 153.71404682286084,74.65713733574376 153.71404682286084,75.04937182716094 153.62374581908807,75.44160620297771 153.53344481578097,75.8338404627284 153.35284280916676,76.71636712318286 153.26254180585966,77.20665945881046 153.17224080255255,77.59889319678769 152.99163879593834,77.99112681904808 153.08193979877979,78.7755937158363 153.08193979877979,79.26588529057335 153.08193979877979,79.756176684401 153.08193979877979,80.24646789720282 153.17224080255255,81.12899162375834 153.35284280916676,81.71734044863842 153.35284280916676,82.3056890128646 153.53344481578097,82.79597928363364 153.71404682286084,83.58044334047008 153.71404682286084,83.9726751948474 153.71404682286084,84.46296485012863 153.89464882900938,85.34548577293754 154.07525083608925,85.63965928356629 154.16555183939636,86.03189052944072 154.25585284270346,86.32606388803106 154.52675585309044,86.71829493111 154.52675585309044,87.50275666965172 154.52675585309044,87.89498736499809 154.61705685593188,88.28721794451121 154.70735785923898,88.58139080298133 154.61705685593188,88.87556359637529 154.88795986631885,89.36585144035053 155.52006688946858,89.36585144035053 155.79096989985555,89.26779388613068 156.1521739126183,89.16973632457666 156.42307692253962,89.07167875557207 156.6939799329266,88.87556359637529 157.055183946155,88.67944840795826 157.32608695654199,88.58139080298133 158.04849498299882,88.58139080298133 158.95150501653552,88.67944840795826 159.4933110368438,88.87556359637529 160.03511705622077,88.77750600571744 160.48662207322195,88.87556359637529 160.93812709022313,89.07167875557207 162.02173913037404,89.26779388613068 162.74414715729654,89.26779388613068 163.19565217383206,89.46390898758546 164.27926421398297,89.46390898758546 164.82107023429126,89.56196652725339 165.9046822739765,89.85613910341635 166.5367892975919,89.95419661421329 167.07859531743452,90.05225411779247 167.4397993311286,90.05225411779247 168.07190635427833,90.1503116141539 168.4331103679724,90.05225411779247 168.70401337742805,89.95419661421329 168.88461538450792,89.95419661421329 169.15551839442924,89.95419661421329 169.78762541804463,89.75808158516884 170.51003344496712,89.46390898758546 170.96153846150264,89.56196652725339 171.41304347803816,89.56196652725339 171.86454849457368,89.56196652725339 172.31605351157486,89.56196652725339 173.67056856118143,89.36585144035053 174.30267558526248,89.16973632457666 174.9347826084122,89.36585144035053 175.29598662164062,89.36585144035053 175.5668896320276,89.46390898758546 175.8377926419489,89.56196652725339 176.19899665517733,89.75808158516884 176.83110367879272,90.1503116141539 177.55351170524955,90.44448405993171 178.18561872886494,90.64059898734558 178.90802675578743,91.13088617951144 180.26254180585966,92.30757470137905 180.89464882900938,92.69980397692416 181.52675585262477,92.89591857139021 182.7006688960828,93.68037665868178 183.2424749159254,93.77843388717156 183.1521739126183,93.19009040866513 184.32608695654199,92.99397585762199 184.50668896269053,92.20951736462303 184.9581939796917,90.73865644016769 185.13879598677158,90.1503116141539 185.22909698961303,89.6600240599364 185.31939799292013,88.67944840795826 185.22909698961303,88.18916031054687 185.31939799292013,87.3066412784392 185.4096989966929,87.01246813731268 185.4096989966929,86.6202371813124 185.31939799292013,85.93383272888605 185.04849498299882,85.14937006286345 185.22909698961303,84.46296485012863 184.9581939796917,84.16879107861314 184.5969899664633,83.9726751948474 184.6872909697704,83.18821136991028 184.8678929763846,82.59986319707241 184.7775919730775,81.81539856060408 184.7775919730775,81.42316606873646 185.22909698961303,80.83481711323839 185.04849498299882,78.38336032535881 184.9581939796917,77.99112681904808 184.8678929763846,77.10860100632999 184.9581939796917,76.22607460641302 185.04849498299882,75.93189900938887 185.13879598677158,75.63772334717214 185.31939799292013,75.14743043214548 185.4096989966929,74.06878538092133 185.5,73.284315702389 185.5,71.61731609574053 185.22909698961303,71.02896279329434 184.9581939796917,70.63672711374238 184.7775919730775,70.24449131812435 184.41638795938343,69.65613740717527 183.87458194000646,69.85225540655665 183.1521739126183,69.65613740717527 182.881270902697,69.4600193790393 182.52006688946858,69.16584228223655 181.8879598658532,69.16584228223655 181.34615384601057,68.67554697627202 181.0752508356236,68.47942880308256 180.71404682239518,68.18525148893241 180.17224080255255,68.0871923698578 179.35953177232295,67.98913324356545 178.90802675578743,68.18525148893241 178.4565217392519,68.47942880308256 178.00501672225073,68.77360605192371 177.19230769202113,68.87166512059048 176.3795986622572,68.47942880308256 175.47658862825483,68.2833106010221 175.0250836117193,68.2833106010221 174.6638795984909,68.18525148893241 174.2123745814897,67.98913324356545 173.9414715715684,67.89107410993893 173.12876254180446,67.69495582068339 172.58695652149618,67.69495582068339 172.31605351157486,67.79301496886183 171.50334448134527,67.69495582068339 170.69063545158133,67.59689666540362 170.51003344496712,67.30271915579215 170.32943143788725,67.10660077969078 169.51672240765765,67.49883750267327 168.9749163882807,67.98913324356545 167.89130434766412,68.47942880308256 167.53010033397004,68.57748789340258 167.07859531743452,68.57748789340258 166.627090300899,68.57748789340258 166.08528428105637,68.57748789340258 165.182274247054,68.38136970554478 164.82107023429126,68.18525148893241 164.00836120406166,68.18525148893241 163.28595317713916,68.18525148893241 162.56354515021667,67.98913324356545 162.1120401332155,67.98913324356545 161.47993311053142,67.98913324356545 161.11872909683734,67.98913324356545 160.21571906330064,68.0871923698578 159.31270902976394,68.18525148893241 158.86120401322842,68.18525148893241 158.4096989966929,68.18525148893241 157.5066889631562,68.0871923698578 156.7842809362337,68.87166512059048 156.5133779263124,69.0677832356887 156.33277591969818,69.4600193790393 156.06187290977687,69.75419641041663 155.7006688960828,70.44060923042707 155.61036789277568,70.83284496818669 155.42976588616148,71.22508058999665 155.33946488285437,71.61731609574053 155.1588628757745,72.00955148553476 155.1588628757745,72.40178675961215 154.70735785923898,73.08819821011275 154.61705685593188,73.48043316556141 154.34615384601057,73.9707266963087 154.25585284270346,74.36296139098704 154.16555183939636,75.34354761976283 154.07525083608925,75.73578190850094 153.80434782570228,76.6183086342644 153.53344481578097,77.50083477341104 153.44314381247386,77.99112681904808 153.26254180585966,78.38336032535881 153.26254180585966,78.87365204503294 153.17224080255255,79.26588529057335 153.08193979877979,79.6581184201641 153.17224080255255,80.54064253775869 153.26254180585966,81.03093346080277 153.35284280916676,81.42316606873646 153.35284280916676,81.91345666570123 153.26254180585966,82.89403731620405 153.08193979877979,83.9726751948474 153.71404682286084,85.0513121971162 153.80434782570228,85.83577492111363 153.89464882900938,86.22800610901322 153.98494983278215,86.6202371813124 154.07525083608925,87.01246813731268 153.98494983278215,87.89498736499809 153.98494983278215,88.28721794451121 154.25585284270346,89.16973632457666 154.34615384601057,89.56196652725339 154.43645484931767,90.05225411779247 154.43645484931767,90.83671388588846 154.43645484931767,91.22894359612837 154.43645484931767,91.62117319041863 154.25585284270346,92.30757470137905 154.07525083608925,92.60174666892271 153.80434782570228,93.38620493013877 153.80434782570228,94.17066272825468 153.98494983278215,94.85706292081159 154.25585284270346,95.15123432304244 154.43645484931767,95.54346275841817 154.25585284270346,96.52403333946131 153.98494983278215,97.11237534019165 153.89464882900938,97.60266014188528 153.80434782570228,98.09294476232026 153.71404682286084,98.48517232842278 153.53344481578097,98.8773997783428 153.35284280916676,99.66185433068313 153.53344481578097,99.95602466829587 153.71404682286084,100.34825168375392 153.80434782570228,100.64242186932825 153.98494983278215,100.93659198971 153.80434782570228,101.81910195946693 153.89464882900938,102.70161134237424 153.89464882900938,103.48606363486033 153.71404682286084,104.2705154636642 153.17224080255255,104.66274120402522 152.63043478224427,105.05496682890225 151.99832775909454,105.15302321675699 151.09531772555783,104.2705154636642 149.28929765848443,103.87828960712068 148.7474916386418,103.87828960712068 148.29598662210628,103.87828960712068 147.9347826084122,103.87828960712068 147.5735785951838,103.78023312508594 147.1220735781826,103.78023312508594 146.30936454841867,103.68217663560063 145.58695652103052,103.78023312508594 144.86454849457368,103.58412013878115 145.22575250826776,103.38800712383818 145.58695652103052,102.70161134237424 145.40635451488197,102.4074416133808 145.40635451488197,102.11327181896195 145.76755852857605,101.62298868352082 145.85785953188315,101.81910195946693 145.31605351157486,102.60355477337725 145.22575250826776,102.50549819681328 145.40635451488197,102.60355477337725 145.22575250826776,102.70161134237424 145.85785953188315,102.7996679043863 146.58026755833998,102.7996679043863 147.30267558526248,103.38800712383818 147.48327759187669,104.07440254988614 147.30267558526248,104.07440254988614 147.1220735781826,104.17245901026763 147.03177257534117,104.17245901026763 146.7608695649542,104.17245901026763 146.48996655503288,103.87828960712068 146.21906354511157,103.68217663560063 145.9481605347246,103.58412013878115 145.58695652103052,103.28995060513262 145.58695652103052,103.28995060513262 145.49665551818907,102.99578100629151 145.58695652103052,102.89772445894778 145.67725752480328,102.70161134237424 146.0384615380317,103.09383754665032 145.9481605347246,103.28995060513262 145.76755852857605,103.78023312508594 145.49665551818907,104.07440254988614 145.49665551818907,104.17245901026763 145.58695652103052,104.07440254988614 145.49665551818907,103.97634608205408 145.49665551818907,103.87828960712068 145.58695652103052,103.87828960712068 145.58695652103052,103.97634608205408 145.67725752480328,103.97634608205408 145.67725752480328,104.07440254988614 145.67725752480328,103.97634608205408 145.76755852857605,103.97634608205408 145.76755852857605,104.07440254988614 145.85785953188315,104.17245901026763 146.1287625413388,104.2705154636642 145.85785953188315,104.46662834833842 145.67725752480328,104.5646847798489 145.22575250826776,104.66274120402522 144.95484949834645,104.66274120402522 144.77424749126658,104.66274120402522 144.14214046811685,104.66274120402522 143.87123745772988,104.76079762110021 143.60033444780856,104.76079762110021 142.60702341096476,104.5646847798489 141.88461538450792,104.85885403084103 140.71070234058425,104.5646847798489 140.16889632074162,104.3685719097266 138.7240802673623,104.46662834833842 138.182274247054,104.66274120402522 137.6404682272114,104.76079762110021 137.27926421398297,104.9569104333641 136.9180602002889,104.9569104333641 135.65384615352377,105.05496682890225 135.29264214029536,105.05496682890225 134.84113712329417,104.85885403084103 134.38963210675865,104.85885403084103 134.02842809306458,104.85885403084103 133.30602006660774,104.76079762110021 133.03511705668643,104.66274120402522 132.67391304345801,104.46662834833842 131.86120401322842,104.17245901026763 131.4096989966929,104.17245901026763 130.4163879598491,104.07440254988614 130.32608695654199,103.68217663560063 130.14548494946212,103.38800712383818 129.8745819395408,103.28995060513262 129.5133779263124,103.09383754665032 128.9715719060041,102.60355477337725 128.52006688946858,102.70161134237424 128.24916387954727,102.7996679043863 127.97826086962596,102.7996679043863 127.97826086962596,102.7996679043863 128.06856187293306,102.89772445894778 127.97826086962596,102.7996679043863 127.07525083562359,103.09383754665032 126.17224080255255,102.7996679043863 125.72073578555137,102.70161134237424 125.35953177232295,102.50549819681328 125.08862876240164,102.4074416133808 124.54682274209335,102.4074416133808 123.73411371186376,102.4074416133808 122.5602006688714,102.21132842428051 122.01839464856312,101.32881871529389 121.83779264241457,100.93659198971 121.65719063486904,100.44630841957405 121.29598662210628,99.66185433068313 120.6638795984909,98.97545662277844 120.39297658856958,98.38711544754915 120.12207357818261,98.19100166473072 119.8511705682613,97.99488785257563 119.58026755880564,97.70071708038449 119.1287625413388,97.40654624288436 118.76755852857605,97.01431835826952 118.13545150496066,96.52403333946131 117.77424749173224,96.32791928108782 117.50334448134527,96.1318051937269 116.51003344496712,94.7590057720663 115.78762541757897,93.77843388717156 115.42642140435055,93.38620493013877 115.06521739112213,92.99397585762199 114.4331103679724,92.40563203115016 114.3428093646653,92.40563203115016 114.3428093646653,92.20951736462303 114.25250836089253,92.01340266875923 113.71070234058425,91.52311580267269 113.5301003344357,91.32700100552756 113.25919732404873,91.03282875544392 112.5367892975919,90.64059898734558 112.17558528389782,90.44448405993171 111.9046822739765,90.24836910329759 111.45317725744098,89.85613910341635 110.9113712371327,89.26779388613068 110.45986622059718,89.07167875557207 110.0986622069031,88.87556359637529 109.64715719036758,88.67944840795826 109.28595317713916,88.58139080298133 108.56354515021667,87.9930450207321 108.20234113745391,87.7969297018135 107.75083612045273,87.20858357194811 107.93143812706694,86.71829493111 107.93143812706694,86.03189052944072 107.57023411337286,85.73771710589062 106.84782608691603,85.63965928356629 106.57692307699472,85.44354361691512 106.21571906330064,85.34548577293754 105.76421404676512,84.46296485012863 105.58361204015091,84.16879107861314 105.13210702314973,83.48238535865676 104.86120401322842,83.18821136991028 104.68060200614855,83.09015335934237 104.5,82.59986319707241 104.5903010033071,82.3056890128646 104.68060200614855,81.91345666570123 104.77090300992131,81.52122420247179 104.86120401322842,81.03093346080277 104.86120401322842,80.63870073691942 105.22240802645683,79.756176684401 105.3127090302296,79.36394358391408 105.40301003307104,78.9717103674775 105.40301003307104,78.67753537895624 105.3127090302296,77.89306842442602 105.3127090302296,77.10860100632999 105.49331103637815,76.81442560488358 105.67391304345801,76.42219163500704 105.76421404676512,76.029957548948 105.85451505007222,75.53966477874201 105.94481605291367,75.14743043214548 106.1254180604592,74.55907869467046 106.21571906330064,74.1668440583162 106.30602006660774,73.87266800482757 106.48662207322195,73.48043316556141 106.48662207322195,72.99013945320621 106.66722408030182,72.59790435316972 106.75752508314326,72.20566913718358 106.84782608691603,71.42119835724588 106.93812709022313,71.02896279329434 107.11872909683734,70.63672711374238 107.11872909683734,70.14643235097174 107.20903010014445,69.75419641041663 107.20903010014445,69.0677832356887 107.29933110345155,68.38136970554478 107.66053511714563,67.98913324356545 107.84113712375984,67.59689666540362 108.38294314360246,66.91048237483483 109.01505016721785,66.32212698599324 109.10535117052495,65.92988991527818 109.28595317713916,65.53765272826422 109.91806020075455,65.2434747624211 110.36956521729007,65.34153409162536 110.73076923098415,65.43959341361187 111.18227424751967,65.53765272826422 111.45317725744098,65.43959341361187 111.81438127113506,65.43959341361187 112.17558528389782,65.53765272826422 112.5367892975919,65.53765272826422 113.6204013377428,64.85123737272806 113.80100334435701,64.55705925438087 114.25250836089253,64.16482166200876 114.4331103679724,64.16482166200876 115.24581939773634,64.16482166200876 115.42642140435055,63.87064339162316 115.78762541757897,63.38034612929914 116.14882943127304,63.086167685105465 116.51003344496712,62.79198917548638 116.69063545158133,62.49781060090754 117.32274247473106,61.90945325582288 117.50334448134527,61.81139367283322 117.77424749173224,61.71333408285864 118.04515050118789,61.615274485433474 118.40635451488197,61.51721488102339 119.03846153849736,60.34049906057771 118.67725752480328,60.43855875195004 118.31605351157486,60.92885710101109 117.86454849457368,61.22303602367174 117.41304347803816,61.22303602367174 117.14214046811685,61.51721488102339 116.78093645488843,61.71333408285864 116.23913043458015,62.1055723996833 115.87792642135173,62.30169151490554 115.33612040104344,63.086167685105465 114.79431438120082,63.772583953570575 114.07190635427833,63.968702822341584 113.71070234058425,63.87064339162316 113.3494983278215,63.772583953570575 112.5367892975919,63.67452450841665 112.17558528389782,63.87064339162316 111.81438127113506,63.87064339162316 111.54347826074809,63.87064339162316 111.09197324421257,63.87064339162316 110.45986622059718,63.67452450841665 110.8210702338256,62.98810818919446 111.18227424751967,62.693929657922126 111.45317725744098,62.39975106145721 111.7240802673623,62.1055723996833 111.99498327728361,61.90945325582288 112.26588628767058,61.71333408285864 112.5367892975919,61.419155269046314 112.98829431412742,60.92885710101109 113.3494983278215,60.732737783226185 113.71070234058425,60.43855875195004 114.16220735805109,59.85020049405284 114.70401337789372,59.359901746502146 114.97491638781503,59.163782196701504 115.24581939773634,59.065722411032766 115.51672240765765,58.771543010370806 115.87792642135173,58.575423373724334 116.05852842796594,58.37930370797403 116.23913043458015,58.08512415504083 116.78093645488843,57.59482475556433 118.04515050118789,57.20258510520216 118.94816053519025,56.810345339239575 119.30936454841867,56.712285379646346 119.67056856164709,56.51616543857381 119.9414715715684,56.41810545732733 120.30267558526248,56.32004546863027 120.6638795984909,56.221985472599044 121.38628762541339,56.221985472599044 122.28929765895009,55.82974541687872 122.6505016721785,55.633625345421024 123.01170568540692,55.339445183984935 124.36622073594481,54.45690430828836 124.90802675578743,54.35884417477064 125.1789297661744,54.35884417477064 125.54013377893716,54.26078403391875 125.99163879593834,54.06466373067815 126.26254180585966,53.86854339845013 127.07525083562359,53.672423037234694 127.52675585262477,52.69182079611346 127.25585284270346,52.49570026108995 127.43645484931767,52.69182079611346 127.70735785923898,52.88794130214956 127.70735785923898,52.98600154463202 127.70735785923898,52.98600154463202 127.79765886254609,52.88794130214956 127.97826086962596,52.88794130214956 127.97826086962596,52.88794130214956 127.88795986585319,52.78988105291501 127.79765886254609,52.88794130214956 127.61705685593188,52.88794130214956 127.34615384601057,52.98600154463202 127.16555183939636,53.28018222760875 127.52675585262477,53.57436284550931 127.61705685593188,53.57436284550931 127.43645484931767,53.770483221509494 127.25585284270346,53.96660356828943 126.80434782616794,53.96660356828943 126.62374581908807,54.06466373067815 126.26254180585966,54.162723885965534 125.90133779263124,54.35884417477064 125.1789297661744,54.45690430828836 124.45652173878625,54.84914476983249 124.09531772555783,55.04526495735627 123.82441471563652,55.143325040116906 123.28260869532824,55.437505245092325 122.92140468209982,55.339445183984935 122.46989966509864,55.339445183984935 122.01839464856312,55.339445183984935 121.20568561879918,55.24138511554338 120.754180601798,55.73168538487516 120.48327759187669,55.82974541687872 120.12207357818261,56.02586545923259 119.67056856164709,56.712285379646346 119.30936454841867,56.810345339239575 118.85785953141749,56.90840529173147 118.22575250826776,57.39870494499337 117.50334448134527,57.79094453714788 116.78093645488843,58.08512415504083 116.41973244166002,58.477363544283435 116.14882943127304,58.869602817692794 115.96822742465883,59.163782196701504 115.51672240765765,59.55602126743179 115.1555183948949,59.94826022174675 114.79431438120082,60.43855875195004 114.52341137081385,60.63467811350711 114.3428093646653,60.92885710101109 113.89130434766412,61.22303602367174 113.5301003344357,61.51721488102339 113.16889632074162,61.71333408285864 111.81438127113506,62.79198917548638 111.63377926405519,63.086167685105465 111.09197324421257,63.772583953570575 111.45317725744098,64.36094047268853 112.17558528389782,64.36094047268853 112.5367892975919,64.45899986708537 112.89799331082031,64.36094047268853 113.25919732404873,64.36094047268853 113.71070234058425,64.45899986708537 114.07190635427833,64.45899986708537 114.52341137081385,64.36094047268853 115.24581939773634,64.16482166200876 115.78762541757897,64.2628810708411 116.23913043458015,64.45899986708537 116.69063545158133,64.45899986708537 117.59364548465237,65.04735608201008 118.49665551818907,65.34153409162536 118.94816053519025,65.43959341361187 119.30936454841867,65.63571203604806 120.0317725748755,65.73377133626491 120.754180601798,65.73377133626491 121.5668896320276,66.1260084649548 122.01839464856312,66.51824547769502 122.83110367879272,66.8124231613474 123.28260869532824,66.91048237483483 124.27591973217204,66.91048237483483 124.81772575248033,67.00854158075526 125.63043478270993,66.71436394075863 125.90133779263124,66.8124231613474 126.26254180585966,66.71436394075863 127.07525083562359,66.02794919372536 127.79765886254609,65.63571203604806 128.06856187293306,65.63571203604806 128.7006688960828,65.04735608201008 128.9715719060041,64.65511863445863 129.24247491639107,64.2628810708411 129.42307692253962,63.38034612929914 129.6036789296195,62.49781060090754 129.9648829428479,62.20363196101971 130.05518394662067,61.81139367283322 130.32608695654199,61.419155269046314 130.32608695654199,60.34049906057771 130.4163879598491,59.55602126743179 130.5969899664633,59.26184197526891 130.68729096930474,58.869602817692794 130.68729096930474,57.9870642896276 130.5969899664633,57.59482475556433 130.7775919730775,56.712285379646346 130.9581939796917,56.32004546863027 131.04849498299882,55.92780544178095 131.5903010033071,55.339445183984935 131.95150501653552,55.143325040116906 132.31270902976394,55.143325040116906 132.5836120401509,54.94720486737788 132.85451505007222,54.94720486737788 140.801003344357,52.201519403839484 141.07190635427833,52.201519403839484 141.3428093646653,52.103459103847854 141.70401337789372,52.00539879640564 141.97491638781503,52.00539879640564 142.24581939773634,51.90733848162927 142.60702341096476,51.90733848162927 143.41973244119436,51.711217830656096 143.78093645488843,51.515097150579095 144.14214046811685,51.31897644151468 144.59364548465237,51.31897644151468 144.95484949834645,51.22091607609764 145.31605351157486,51.22091607609764 146.1287625413388,50.926734936307184 146.9414715715684,50.82867454213556 147.30267558526248,50.926734936307184 148.20568561833352,50.73061414051335 149.01839464856312,50.534493315499276 149.6505016721785,49.84807019983418 150.46321070194244,49.553888755850494 150.82441471563652,49.553888755850494 151.27591973217204,49.45582826016471 151.99832775909454,49.16164672921877 152.17892976570874,48.86746513308026 152.44983277609572,48.6713440323947 153.26254180585966,48.37716232787352 153.62374581908807,48.18104115501046 153.98494983278215,48.0829805576941 154.61705685593188,47.592677462729625 155.33946488285437,47.298495518858545 155.79096989985555,47.39655617414974 156.24247491639107,47.494616822339594 156.7842809362337,47.494616822339594 157.23578595276922,47.592677462729625 158.13879598630592,47.298495518858545 158.5903010033071,47.20043485658243 158.95150501653552,47.00431350956205 159.31270902976394,46.8081921339035 159.94481605337933,46.51401001610793 160.66722408030182,46.12176709086634 161.02842809353024,46.12176709086634 161.2993311029859,46.023706341395155 161.66053511667997,45.92564558493905 162.02173913037404,45.92564558493905 162.47324414690956,45.827584820915945 162.83444816060364,45.72952404979151 163.64715719036758,44.84697678324301 164.36956521729007,44.94503761967644 164.9113712371327,45.43534169276245 165.0016722404398,45.827584820915945 165.182274247054,46.219827833236195 165.0016722404398,47.00431350956205 164.55016722390428,47.20043485658243" stroke="#ff3a00" stroke-linecap="round" stroke-linejoin="round" stroke-width="0.5"><title>2020-12-15 4.4km</title></polyline><polyline fill="none" points="81.00423219054937,249.86855512019247 81.52693032380193,249.0159290097654 82.31097752600908,248.16330270888284 83.09502472728491,247.87909389962442 83.87907192949206,247.310676217312 85.44716633297503,245.03700464009307 87.015260736458,242.47912249411456 88.06065700668842,239.35281976219267 88.5833551408723,236.51072414359078 89.10605327412486,235.3738853028044 89.62875140924007,233.95283627486788 90.15144954435527,231.11073662899435 89.89010047633201,229.40547582414 89.89010047633201,227.70021425676532 89.89010047633201,226.27916236734018 89.89010047633201,223.43705699872226 90.15144954435527,221.73179275961593 90.15144954435527,220.310738644097 90.15144954435527,218.88968399935402 89.89010047633201,216.33178430306725 89.62875140924007,215.19493944221176 89.10605327412486,213.7738828896545 89.10605327412486,212.35282580647618 88.84470420703292,210.93176819430664 87.79930793866515,208.37386315548792 87.27660980354995,206.9528040587902 86.75391166843474,205.81595640047453 86.23121353518218,204.67910840222612 85.7085154009983,203.54226006544195 84.14042099751532,201.26856237323955 83.09502472728491,200.1317130192183 82.31097752600908,198.99486332503147 81.52693032380193,197.8580132923089 80.74288312345743,196.7211629205849 78.91343965288252,194.73167395335622 77.8680433826521,193.87903550663032 76.82264711521566,193.02639686875045 75.51590177882463,192.1737580401823 74.47050550952554,191.32111902115867 72.11836390476674,190.18426669901237 70.8116185683757,189.33162723458372 69.76622229907662,188.76320081879385 68.45947696361691,188.1947743189521 65.5846372237429,187.34213440935127 64.27789188735187,186.77370769693516 62.97114655096084,186.48949430906214 61.40305214654654,186.48949430906214 59.83495774306357,185.92106746975332 57.22146707214415,185.3526405452285 55.91472173668444,184.7842135359533 53.301231062971056,184.7842135359533 51.994485727511346,184.7842135359533 50.949089457280934,184.7842135359533 49.642344121821225,185.06842705095187 47.290202517062426,185.63685401761904 45.983457180671394,185.92106746975332 44.676711845211685,186.48949430906214 41.27917396929115,188.47898757946678 39.97242863383144,188.76320081879385 38.927032365463674,189.047414037399 37.62028702814132,189.33162723458372 36.31354169268161,189.90005356515758 33.43870195373893,192.1737580401823 31.870607550255954,194.16324834292755 31.086560348048806,195.01588672609068 30.04116407968104,195.86852491879836 29.25711687747389,197.00537554523908 27.689022473990917,198.99486332503147 27.16632433887571,200.1317130192183 25.859579003416002,202.68962358986028 24.814182735048234,203.82647218112834 24.291484599933028,205.24753244407475 23.768786465749145,206.3843802723568 23.24608833063394,207.52122776093893 22.462041130289435,208.65807491121814 21.155295793898404,210.6475566078443 20.632597658783197,211.78440282470547 20.371248591691256,212.92124870372936 19.84855045657605,214.05809424212202 19.32585232332349,216.33178430306725 19.064503255300224,217.46862882422283 18.803154188208282,218.88968399935402 18.54180512111634,220.0265277577564 18.280456053093076,221.44758197921328 18.280456053093076,222.86863567004912 18.019106986932456,225.42653097910807 18.019106986932456,226.8475831868127 18.280456053093076,228.26863486436196 18.54180512111634,229.40547582414 18.803154188208282,230.5423164453823 19.587201389484107,233.38441651477478 19.84855045657605,234.8054657552857 19.84855045657605,236.22651446494274 20.893946726806462,238.78440080792643 21.416644860059023,240.20544803421944 21.939342994242907,241.34228543378413 22.462041130289435,242.47912249411456 22.98473926447332,243.9001683429815 24.291484599933028,246.17384059820324 24.814182735048234,247.310676217312 25.336880869232118,248.44751149672084 26.120928071439266,249.58434643759392 27.689022473990917,251.57380676828325 28.473069676198065,252.42643230571412 29.518465944565833,253.5632660598494 30.563862213864923,254.13168280944228 31.34790941607207,255.26851605484262 32.131956617347896,256.1211407657247 32.65465475153178,256.97376528638415 34.22274915501475,258.6790137554053 35.529494491405785,259.2474297420122 36.57489075977355,260.1000535625499 37.881636096164584,260.95267719286494 39.188381432555616,261.52109284116887 41.540523037314415,262.3737161534373 42.585919306613505,262.9421315882355 43.63131557498127,263.5105469399132 45.199409978464246,264.0789622059092 47.55155158415437,264.647377386922 48.85829691961408,264.9315849461127 49.90369318984449,264.9315849461127 51.2104385253042,264.9315849461127 52.51718386076391,264.647377386922 53.82392919808626,264.9315849461127 55.13067453447729,264.647377386922 57.74416520539671,264.647377386922 59.31225960981101,264.36316980724223 60.61900494620204,264.0789622059092 61.92575028259307,264.0789622059092 63.49384468514472,263.79475458315574 66.10733535792679,263.2263392750174 67.4140806933865,262.657923881663 68.19812789559364,262.3737161534373 68.98217509686947,262.0895084037911 70.28892043419182,261.23688502795994 71.59566576965153,260.66846933797933 74.99320364370942,257.8263896163553 76.29994897916913,257.25797341787256 77.34534524939954,256.1211407657247 78.12939245067537,254.9843077750411 79.17478871997446,254.13168280944228 81.26558125857264,252.14222381450236 82.04962845891714,251.28959821281023 83.35637379530817,249.30013773404062 84.14042099751532,248.16330270888284 85.44716633297503,245.6054226611741 85.96986446715891,244.4685865335632 86.49256260320544,243.33175006695092 87.015260736458,242.1949132606387 88.06065700668842,239.92123863101006 88.32200607284904,238.50019129901193 88.5833551408723,237.3633530519437 88.84470420703292,235.94230476557277 89.10605327412486,234.52125594974495 89.36740234214813,231.67915672808886 89.36740234214813,230.5423164453823 89.62875140924007,229.12126561650075 90.15144954435527,226.27916236734018 90.41279861144722,224.85810994775966 90.41279861144722,223.43705699872226 90.9354967456311,222.01600351929665 90.9354967456311,220.5949495099485 90.9354967456311,217.7528399019502 90.67414767760783,216.33178430306725 90.15144954435527,214.91072817426175 89.10605327412486,212.35282580647618 88.5833551408723,211.2159797588829 88.06065700668842,210.36334500042722 87.53795887064189,209.2264983591158 87.015260736458,208.37386315548792 86.75391166843474,207.52122776093893 86.75391166843474,206.9528040587902 86.49256260320544,206.3843802723568 85.44716633297503,204.1106842760928 84.6631191316992,202.68962358986028 84.14042099751532,201.26856237323955 83.09502472728491,200.1317130192183 81.52693032380193,197.57380073168315 80.74288312345743,196.7211629205849 79.69748685415834,195.58431220869534 78.65209058485925,194.73167395335622 77.8680433826521,193.59482264821418 76.03859991393983,191.88954505557194 74.99320364370942,191.0369059725199 73.94780737534165,189.90005356515758 72.90241110604256,189.33162723458372 70.55026950035244,188.1947743189521 69.24352416489273,187.6263477334287 67.93677882943302,187.0579210643191 66.36868442595005,186.48949430906214 63.755193752236664,186.20528090023436 62.448448416776955,185.92106746975332 61.14170308038592,185.63685401761904 60.09630681108683,185.3526405452285 59.050910542719066,184.7842135359533 58.005514273419976,184.5 55.39202360063791,184.5 54.08527826424688,184.7842135359533 52.77853292878717,185.06842705095187 51.2104385253042,185.06842705095187 49.90369318984449,185.3526405452285 47.02885344903916,185.92106746975332 45.72210811357945,186.20528090023436 44.41536277718842,186.48949430906214 43.36996650788933,186.77370769693516 41.017824904061854,187.6263477334287 39.97242863383144,188.1947743189521 38.927032365463674,189.047414037399 37.62028702814132,189.61584041058086 36.57489075977355,190.4684798112139 34.484098222106695,191.88954505557194 33.43870195373893,192.74218394677155 32.393305683508515,193.31060976884328 31.34790941607207,194.16324834292755 29.779815012589097,195.86852491879836 28.734418742358685,197.00537554523908 27.95037154108286,198.14222583221272 26.904975273646414,198.99486332503147 26.120928071439266,200.41592539008707 23.50743739772588,203.54226006544195 22.98473926447332,204.67910840222612 22.462041130289435,205.81595640047453 21.939342994242907,206.9528040587902 21.416644860059023,208.37386315548792 20.893946726806462,210.36334500042722 20.632597658783197,211.50019130273722 20.109899524599314,212.63703726534732 20.109899524599314,214.3423055736348 20.109899524599314,215.76336191524751 19.32585232332349,218.6054730070755 18.803154188208282,219.74231685022824 18.280456053093076,220.87916035414673 17.757757918909192,223.43705699872226 17.757757918909192,224.85810994775966 17.757757918909192,226.27916236734018 18.019106986932456,227.70021425676532 18.019106986932456,228.83705538674258 18.54180512111634,231.67915672808886 18.803154188208282,233.10020660376176 19.32585232332349,234.52125594974495 19.587201389484107,235.94230476557277 20.109899524599314,237.3633530519437 21.155295793898404,239.92123863101006 21.677993928082287,241.34228543378413 21.939342994242907,242.47912249411456 22.462041130289435,243.9001683429815 22.98473926447332,245.03700464009307 23.50743739772588,247.59488506847993 24.552833667956293,248.44751149672084 25.59822993632406,249.58434643759392 26.382277137599885,250.43697242066264 27.16632433887571,251.28959821281023 28.99576781038195,253.5632660598494 30.04116407968104,254.70009947451763 30.825211280025542,255.26851605484262 31.609258483164012,256.4053489610087 32.393305683508515,257.25797341787256 34.22274915501475,258.6790137554053 35.26814542338252,259.2474297420122 36.05219262558967,260.1000535625499 36.836239826865494,260.66846933797933 37.62028702814132,261.23688502795994 39.97242863383144,261.80530063272454 41.540523037314415,262.3737161534373 43.10861744172871,262.9421315882355 44.41536277718842,263.5105469399132 45.983457180671394,264.0789622059092 48.59694785345346,264.647377386922 49.90369318984449,264.647377386922 51.2104385253042,264.647377386922 52.51718386076391,264.9315849461127 53.56258013099432,264.9315849461127 54.86932546645403,264.9315849461127 58.005514273419976,264.647377386922 59.31225960981101,264.36316980724223 61.14170308038592,264.0789622059092 62.448448416776955,263.79475458315574 65.5846372237429,263.79475458315574 66.89138255920261,263.2263392750174 68.98217509686947,262.0895084037911 70.02757136709988,261.52109284116887 71.33431670255959,260.95267719286494 72.37971297279,260.3842614609748 73.42510924022645,259.81584564386867 74.20915644150227,259.5316377035342 75.25455271173269,258.96322175930254 78.12939245067537,257.5421815274749 79.4361377870664,256.4053489610087 81.00423219054937,254.13168280944228 81.7882793918252,252.9948492255062 82.57232659403235,251.858015302103 83.35637379530817,250.43697242066264 84.14042099751532,249.0159290097654 85.7085154009983,246.4580495345872 86.49256260320544,245.3212136614602 86.75391166843474,243.9001683429815 88.06065700668842,241.34228543378413 88.32200607284904,239.92123863101006 88.84470420703292,238.78440080792643 89.10605327412486,237.3633530519437 89.10605327412486,235.94230476557277 89.62875140924007,233.10020660376176 90.15144954435527,231.96336674550548 90.41279861144722,231.11073662899435 90.67414767760783,229.12126561650075 90.67414767760783,227.9844245708082 90.9354967456311,226.56337278685533 91.19684581272304,225.1423204736784 91.19684581272304,223.72126763057895 91.19684581272304,220.5949495099485 90.9354967456311,219.1738949706778 90.67414767760783,218.0370509577915 90.41279861144722,216.61599546554498 90.15144954435527,215.19493944221176 89.62875140924007,212.35282580647618 89.62875140924007,211.2159797588829 89.10605327412486,210.07913337205537 88.06065700668842,207.23701592092402 87.53795887064189,206.10016834642738 85.96986446715891,203.82647218112834 85.18581726588309,203.25804792856798 84.14042099751532,202.12119916686788 83.35637379530817,200.98435006663203 82.57232659403235,199.56328821508214 80.74288312345743,197.8580132923089 79.95883592125028,197.00537554523908 79.4361377870664,195.86852491879836 77.60669431649148,193.59482264821418 76.29994897916913,192.74218394677155 75.25455271173269,191.88954505557194 73.94780737534165,191.0369059725199 72.11836390476674,189.047414037399 70.02757136709988,187.6263477334287 68.72082602977753,187.34213440935127 67.4140806933865,186.77370769693516 66.10733535792679,186.77370769693516 64.80059002246708,186.48949430906214 61.92575028259307,185.63685401761904 60.3576558791101,185.63685401761904 59.050910542719066,185.3526405452285 57.74416520539671,185.3526405452285 56.437419869937,185.3526405452285 54.346627332270145,185.06842705095187 53.039881995879114,185.3526405452285 51.73313665948808,185.63685401761904 50.42639132309705,185.63685401761904 48.85829691961408,185.63685401761904 45.983457180671394,186.20528090023436 44.676711845211685,186.77370769693516 43.36996650788933,187.34213440935127 41.80187210533768,187.6263477334287 40.49512676894665,188.1947743189521 37.881636096164584,189.33162723458372 35.26814542338252,190.75269290222786 34.484098222106695,191.88954505557194 33.43870195373893,192.74218394677155 32.131956617347896,193.59482264821418 30.825211280025542,194.73167395335622 28.734418742358685,196.7211629205849 27.689022473990917,197.8580132923089 26.904975273646414,198.71065084892325 25.336880869232118,200.98435006663203 24.552833667956293,202.12119916686788 24.030135532841086,203.25804792856798 23.768786465749145,204.1106842760928 22.20069206226617,206.66859217593446 21.677993928082287,208.0896513790358 21.416644860059023,208.94228664552793 20.893946726806462,210.07913337205537 20.371248591691256,212.92124870372936 20.109899524599314,214.05809424212202 19.84855045657605,215.47915068920702 19.84855045657605,216.61599546554498 19.064503255300224,219.1738949706778 18.803154188208282,220.310738644097 18.54180512111634,221.73179275961593 18.019106986932456,222.86863567004912 18.019106986932456,225.9949519254733 17.757757918909192,227.4160039210692 18.019106986932456,228.83705538674258 18.019106986932456,230.25810632202774 18.280456053093076,231.67915672808886 18.803154188208282,235.94230476557277 20.371248591691256,238.50019129901193 21.155295793898404,239.63702920731157 21.939342994242907,242.1949132606387 22.462041130289435,243.61595921521075 23.50743739772588,245.8896316406317 24.814182735048234,248.16330270888284 26.120928071439266,250.15276378090493 27.95037154108286,252.14222381450236 28.99576781038195,252.9948492255062 30.825211280025542,254.70009947451763 31.870607550255954,255.83693255018443 32.91600381862372,256.68955713440664 33.96140008792281,257.5421815274749 35.0067963572219,258.3948057300877 36.57489075977355,259.81584564386867 37.62028702814132,260.3842614609748 38.40433423034847,260.95267719286494 39.44973050057888,261.80530063272454 40.75647583603859,262.3737161534373 41.80187210533768,262.657923881663 44.15401371009648,264.0789622059092 45.72210811357945,264.36316980724223 46.76750438287854,264.9315849461127 48.07424971833825,264.9315849461127 49.38099505472928,265.21579248365015 53.301231062971056,265.5 54.60797639936209,265.21579248365015 56.17607080284506,264.9315849461127 59.57360867783427,264.647377386922 61.14170308038592,264.647377386922 64.27789188735187,264.0789622059092 65.84598628990352,263.5105469399132 67.15273162629455,263.5105469399132 68.19812789559364,263.2263392750174 70.02757136709988,262.0895084037911 71.07296763546765,261.52109284116887 72.11836390476674,260.95267719286494 73.1637601731345,260.3842614609748 74.20915644150227,259.2474297420122 75.25455271173269,258.6790137554053 77.60669431649148,257.25797341787256 78.65209058485925,256.4053489610087 79.69748685415834,255.5527243129909 81.00423219054937,255.26851605484262 82.57232659403235,252.9948492255062 83.09502472728491,251.858015302103 84.40177006460726,249.58434643759392 85.7085154009983,248.73172026430257 87.015260736458,246.74225844955072 87.79930793866515,245.8896316406317 88.32200607284904,244.75279559730552 88.84470420703292,242.47912249411456 89.36740234214813,241.34228543378413 89.89010047633201,240.48965741624124 90.15144954435527,237.93177221762016 91.45819487981498,234.23704612255096 92.24224208202213,235.3738853028044 90.15144954435527,241.05807611579075 89.62875140924007,242.1949132606387 89.10605327412486,243.61595921521075 88.32200607284904,245.8896316406317 88.32200607284904,247.310676217312 88.06065700668842,249.86855512019247 87.27660980354995,250.7211810394656 86.49256260320544,251.858015302103 85.7085154009983,252.71064077620395 84.92446819972247,253.8474744455889 83.87907192949206,254.70009947451763 82.04962845891714,256.97376528638415 79.69748685415834,258.3948057300877 78.65209058485925,258.6790137554053 78.12939245067537,258.6790137554053" stroke="#ffff00" stroke-linecap="round" stroke-linejoin="round" stroke-width="0.5"><title>2020-12-18 3.0km</title></polyline><polyline fill="none" points="167.6608993820846,238.3292193133384 167.6608993820846,235.76593262376264 167.6608993820846,233.7153025912121 167.18879731185734,230.6393564059399 166.2445931714028,223.97480165911838 166.2445931714028,220.8988511567004 165.7724910993129,217.82289929129183 165.30038903094828,214.7469460600987 164.82828695885837,208.08237605029717 164.82828695885837,205.0064185024239 164.3561848886311,201.4177996381186 162.9398786779493,195.778537676204 159.6351641844958,192.18991404073313 157.7467559017241,190.13927113031968 153.0257351975888,188.08862761268392 150.66522484458983,187.06330562802032 147.8326124213636,186.5506445770152 142.16738757677376,186.5506445770152 136.5021627303213,188.08862761268392 134.14165237918496,189.62661030795425 130.36483581364155,192.70257467310876 129.42063167318702,194.24055634485558 128.00432546064258,195.778537676204 126.11591718159616,199.87981955846772 125.17171303927898,202.44311950402334 125.17171303927898,205.0064185024239 125.64381510950625,207.56971655413508 125.17171303927898,210.64567296486348 125.64381510950625,215.7722639553249 125.17171303927898,218.335558029823 125.17171303927898,220.8988511567004 124.69961096905172,223.46214333781973 124.22750889696181,226.025434571784 123.75540682673454,231.15201419824734 123.75540682673454,233.20264498982579 123.28330475836992,235.76593262376264 122.81120268814266,238.84187653753906 122.81120268814266,241.40516208996996 122.81120268814266,247.04438697220758 123.75540682673454,249.60766949411482 125.64381510950625,255.24688771087676 129.42063167318702,259.86079011531547 132.25324409641325,263.44937875447795 137.44636687077582,264.98734474461526 140.27897929400206,265.5 142.63948964700103,265.5 147.8326124213636,264.98734474461526 152.08153105713427,262.4240679042414 153.96993933804333,260.8861013446003 155.8583476189524,259.34813444456086 159.1630621124059,255.7595436857082 160.57936832495034,253.70891956053674 161.05147039704025,251.65829483093694 161.99567453563213,249.0950130657293 163.41198074817657,244.48110350221395 163.41198074817657,239.86719087185338 162.9398786779493,237.81656205141917 163.41198074817657,235.25327517231926 163.41198074817657,233.20264498982579 162.9398786779493,231.66467195283622 162.9398786779493,229.61404070816934 163.88408282026649,224.48745994502679 163.88408282026649,221.4115096698515 163.88408282026649,218.335558029823 163.88408282026649,215.7722639553249 163.88408282026649,210.64567296486348 163.88408282026649,208.5950355087407 163.88408282026649,206.03173783700913 163.88408282026649,203.46843921672553 161.99567453563213,198.34183913609013 161.05147039704025,195.778537676204 157.27465383149683,191.6772533697076 153.49783726595342,189.11394944693893 151.1373269148171,188.08862761268392 149.24891863390803,187.06330562802032 145.47210206836462,186.03798348922282 140.75108136609197,186.03798348922282 138.39057101123035,186.5506445770152 136.03006065823138,187.5759666385129 131.781142026186,190.13927113031968 130.36483581364155,191.6772533697076 128.9485296048224,193.72789582563564 126.58801925182343,198.34183913609013 125.64381510950625,200.9051396502182 124.69961096905172,206.5443974463269 124.69961096905172,209.6203543129377 124.69961096905172,212.69630981609225 125.17171303927898,215.25960502633825 124.22750889696181,219.87353402050212 123.75540682673454,222.43682657927275 123.28330475836992,225.0001181922853 123.28330475836992,227.56340885767713 122.81120268814266,230.6393564059399 122.33910061605275,235.25327517231926 122.33910061605275,237.81656205141917 122.33910061605275,240.3798479824327 122.33910061605275,242.94313296722248 122.33910061605275,245.50641700439155 122.81120268814266,250.6329822386615 123.75540682673454,252.6836072714068 125.17171303927898,255.24688771087676 126.11591718159616,257.29751138109714 129.89273374341428,261.3987569017336 132.25324409641325,262.9367233477533 137.91846894286573,264.98734474461526 140.75108136609197,264.98734474461526 142.63948964700103,264.98734474461526 147.36051035113633,264.98734474461526 150.19312277436256,261.9114124220796 151.609428986907,260.3734457488172 153.49783726595342,258.8354787346907 155.38624555058777,257.29751138109714 157.27465383149683,255.7595436857082 160.10726625472307,252.17095107072964 161.05147039704025,249.60766949411482 161.99567453563213,244.48110350221395 162.46777660772204,242.43047604477033 162.9398786779493,239.86719087185338 162.9398786779493,237.81656205141917 162.9398786779493,235.25327517231926 163.41198074817657,230.6393564059399 163.88408282026649,228.0760668781586 163.88408282026649,225.51277639949694 163.88408282026649,222.9494849788025 163.88408282026649,220.3861926072277 163.88408282026649,214.7469460600987 163.88408282026649,212.1836506598629 163.41198074817657,210.13301365775988 163.41198074817657,208.08237605029717 163.41198074817657,206.03173783700913 163.41198074817657,201.4177996381186 162.46777660772204,199.3671594550833 161.99567453563213,197.3165186662227 160.10726625472307,193.21523526823148 158.218857973814,191.16459266049787 154.44204141013324,188.08862761268392 152.55363312736154,187.06330562802032 150.19312277436256,186.03798348922282 147.8326124213636,185.52532236510888 142.63948964700103,184.5 137.91846894286573,185.52532236510888 135.0858565196395,186.5506445770152 131.30903995595872,189.11394944693893 130.36483581364155,191.16459266049787 128.9485296048224,193.21523526823148 127.53222339041531,195.2658772696741 125.64381510950625,199.87981955846772 125.17171303927898,202.44311950402334 125.17171303927898,205.0064185024239 125.17171303927898,207.56971655413508 125.17171303927898,210.64567296486348 125.17171303927898,216.79758169827983 124.69961096905172,219.36087539512664 124.22750889696181,222.43682657927275 124.22750889696181,225.0001181922853 123.75540682673454,230.6393564059399 123.75540682673454,233.20264498982579 123.75540682673454,235.76593262376264 123.75540682673454,238.3292193133384 123.75540682673454,241.40516208996996 123.75540682673454,246.5317303542979 123.75540682673454,248.5823565996252 123.75540682673454,251.65829483093694 124.69961096905172,256.7848555203527 128.4764275327325,260.8861013446003 133.19744823686779,263.44937875447795 135.55795858986676,263.9620341225527 137.91846894286573,264.98734474461526 143.1115917172283,265.5 146.41630621254444,264.98734474461526 150.66522484458983,263.44937875447795 152.08153105713427,261.9114124220796 154.44204141013324,260.8861013446003 156.33044968917966,259.34813444456086 159.1630621124059,256.2721996214241 160.10726625472307,254.22157564852387 161.99567453563213,249.0950130657293 162.46777660772204,246.5317303542979 162.9398786779493,243.96844669478014 163.88408282026649,239.35453372262418 163.88408282026649,236.79124741302803 163.88408282026649,234.22796015720814 163.88408282026649,231.66467195283622 164.3561848886311,229.10138280224055 164.3561848886311,227.0507507994771 164.3561848886311,221.9241681434214 164.3561848886311,219.87353402050212 163.88408282026649,216.79758169827983 164.3561848886311,214.23428705660626 163.88408282026649,212.1836506598629 163.88408282026649,209.6203543129377 163.88408282026649,204.4937587780878 163.88408282026649,201.93045958969742 163.41198074817657,199.87981955846772 161.99567453563213,195.778537676204 160.57936832495034,194.24055634485558 159.1630621124059,192.70257467310876 155.8583476189524,190.13927113031968 153.0257351975888,188.60128854960203 147.8326124213636,187.06330562802032 145.47210206836462,187.06330562802032 139.8068772237748,187.5759666385129 137.44636687077582,188.08862761268392 133.19744823686779,190.65193191403523 131.30903995595872,192.18991404073313 129.89273374341428,193.72789582563564 127.53222339041531,197.3165186662227 127.06012132018805,199.3671594550833 126.58801925182343,205.0064185024239 126.11591718159616,207.56971655413508 126.58801925182343,210.64567296486348 126.11591718159616,213.7216280135326 125.17171303927898,219.36087539512664 124.69961096905172,221.9241681434214 124.69961096905172,223.97480165911838 124.69961096905172,226.025434571784 124.22750889696181,228.58872485812753 123.75540682673454,233.7153025912121 123.75540682673454,236.2785900379531 123.28330475836992,238.84187653753906 122.81120268814266,240.89250505436212 122.81120268814266,243.45578985102475 122.81120268814266,249.0950130657293 124.22750889696181,254.73423169832677 125.64381510950625,257.29751138109714 128.4764275327325,260.8861013446003 133.66955030709505,262.9367233477533 136.03006065823138,263.44937875447795 138.39057101123035,263.9620341225527 140.75108136609197,263.9620341225527 143.5836937893182,264.47468945290893 148.30471449159086,263.44937875447795 150.66522484458983,262.4240679042414 152.55363312736154,260.8861013446003 156.33044968917966,257.81016720319167 158.218857973814,255.7595436857082 159.6351641844958,253.70891956053674 161.52357246354222,249.0950130657293 161.99567453563213,246.5317303542979 162.46777660772204,243.96844669478014 162.46777660772204,241.40516208996996 162.46777660772204,238.84187653753906 162.9398786779493,234.22796015720814 163.41198074817657,231.66467195283622 163.41198074817657,229.61404070816934 163.88408282026649,227.0507507994771 163.88408282026649,223.97480165911838 163.88408282026649,217.82289929129183 164.3561848886311,215.25960502633825 164.3561848886311,212.69630981609225 163.88408282026649,210.13301365775988 164.3561848886311,208.08237605029717 164.3561848886311,202.95577937876806 163.41198074817657,198.34183913609013 161.05147039704025,194.75321682635695 158.218857973814,190.65193191403523 153.49783726595342,188.60128854960203 151.1373269148171,188.08862761268392 148.30471449159086,187.06330562802032 145.47210206836462,187.06330562802032 140.27897929400206,187.5759666385129 136.03006065823138,189.62661030795425 134.61375444941223,191.16459266049787 132.72534616664052,192.70257467310876 129.42063167318702,196.80385837331414 128.00432546064258,198.85449931537732 127.06012132018805,200.9051396502182 126.58801925182343,206.03173783700913 127.06012132018805,208.5950355087407 127.06012132018805,211.15833223517984 126.58801925182343,215.7722639553249 126.58801925182343,218.335558029823 126.58801925182343,220.8988511567004 126.58801925182343,223.46214333781973 126.58801925182343,226.025434571784 126.11591718159616,230.6393564059399 126.11591718159616,233.20264498982579 125.64381510950625,235.76593262376264 125.64381510950625,237.81656205141917 124.69961096905172,240.3798479824327 124.22750889696181,245.50641700439155 125.17171303927898,251.14563855296 126.58801925182343,254.22157564852387 129.89273374341428,258.3228229889646 132.25324409641325,260.8861013446003 136.03006065823138,263.9620341225527 141.2231834344566,264.98734474461526 143.5836937893182,264.47468945290893 148.30471449159086,263.44937875447795 150.19312277436256,262.9367233477533 152.08153105713427,261.3987569017336 153.96993933804333,260.3734457488172 157.7467559017241,257.29751138109714 159.1630621124059,254.73423169832677 161.99567453563213,250.12032588524744 162.46777660772204,244.48110350221395 161.99567453563213,241.91781908646226 162.46777660772204,238.84187653753906 162.46777660772204,236.2785900379531 162.9398786779493,233.7153025912121 163.41198074817657,228.58872485812753 163.41198074817657,226.025434571784 163.41198074817657,223.46214333781973 163.41198074817657,220.8988511567004 163.41198074817657,218.335558029823 163.41198074817657,213.7216280135326 163.41198074817657,211.670991465915 163.41198074817657,209.6203543129377 163.88408282026649,207.0570570183918 163.41198074817657,204.4937587780878 162.9398786779493,199.3671594550833 161.99567453563213,196.80385837331414 159.6351641844958,192.70257467310876 155.8583476189524,190.13927113031968 153.49783726595342,189.62661030795425 151.1373269148171,188.60128854960203 148.77681656368077,187.5759666385129 143.5836937893182,187.06330562802032 140.75108136609197,187.06330562802032 138.39057101123035,188.08862761268392 133.66955030709505,190.13927113031968 132.25324409641325,192.18991404073313 130.83693788573146,193.72789582563564 128.9485296048224,195.2658772696741 127.06012132018805,199.87981955846772 127.06012132018805,202.44311950402334 127.06012132018805,205.51907818764448 127.06012132018805,208.08237605029717 127.06012132018805,210.64567296486348 127.06012132018805,215.7722639553249 126.58801925182343,218.335558029823 126.58801925182343,220.8988511567004 126.11591718159616,223.46214333781973 126.11591718159616,226.025434571784 126.58801925182343,231.15201419824734 126.11591718159616,233.7153025912121 126.11591718159616,235.76593262376264 123.75540682673454,240.89250505436212 122.81120268814266,245.50641700439155 125.17171303927898,254.73423169832677 127.06012132018805,257.29751138109714 130.83693788573146,260.8861013446003 134.14165237918496,262.4240679042414 139.33477515354753,264.98734474461526 142.16738757677376,265.5 146.88840828090906,264.98734474461526 149.24891863390803,263.9620341225527 151.1373269148171,262.4240679042414 153.0257351975888,261.3987569017336 156.80255176126957,258.3228229889646 159.1630621124059,256.2721996214241 161.05147039704025,254.73423169832677 163.88408282026649,250.6329822386615 165.30038903094828,245.50641700439155 165.30038903094828,243.45578985102475 164.82828695885837,240.89250505436212 164.82828695885837,238.84187653753906 164.82828695885837,236.79124741302803 164.82828695885837,234.22796015720814 165.30038903094828,229.61404070816934 165.7724910993129,227.0507507994771 166.2445931714028,224.48745994502679 165.7724910993129,218.84821673110127 165.30038903094828,215.7722639553249 164.3561848886311,212.69630981609225 163.88408282026649,209.6203543129377 163.88408282026649,204.4937587780878 164.3561848886311,201.4177996381186 162.9398786779493,196.2911980431527 161.99567453563213,194.24055634485558 158.69096004217863,191.16459266049787 156.80255176126957,189.62661030795425 154.44204141013324,188.60128854960203 149.24891863390803,186.5506445770152 146.41630621254444,186.5506445770152 143.5836937893182,186.03798348922282 138.39057101123035,187.06330562802032 136.03006065823138,187.5759666385129 133.66955030709505,188.60128854960203 129.89273374341428,191.16459266049787 127.53222339041531,195.778537676204 127.06012132018805,198.34183913609013 126.11591718159616,200.9051396502182 125.64381510950625,206.5443974463269 126.11591718159616,209.6203543129377 125.64381510950625,211.670991465915 125.64381510950625,214.7469460600987 125.64381510950625,217.31024051317945 125.17171303927898,222.9494849788025 124.69961096905172,225.51277639949694 124.69961096905172,227.56340885767713 125.17171303927898,233.20264498982579 124.69961096905172,235.25327517231926 124.69961096905172,238.3292193133384 124.69961096905172,240.89250505436212 124.69961096905172,243.96844669478014 124.69961096905172,249.60766949411482 126.11591718159616,255.7595436857082 130.36483581364155,259.86079011531547 132.72534616664052,261.3987569017336 137.91846894286573,263.44937875447795 140.27897929400206,263.9620341225527 143.1115917172283,263.9620341225527 145.47210206836462,263.9620341225527 147.36051035113633,264.47468945290893 152.08153105713427,264.98734474461526 155.8583476189524,263.9620341225527 157.27465383149683,261.9114124220796 158.69096004217863,260.3734457488172 160.10726625472307,258.3228229889646 163.41198074817657,253.70891956053674 164.3561848886311,251.14563855296 166.2445931714028,244.48110350221395" stroke="#fffb00" stroke-linecap="round" stroke-linejoin="round" stroke-width="0.5"><title>2020-12-21 3.1km</title></polyline></svg>