<?xml version="1.0" encoding="utf-8" ?>
<svg baseProfile="full" height="300mm" version="1.1" viewBox="0,0,200,300" width="200mm" xmlns="http://www.w3.org/2000/svg" xmlns:ev="http://www.w3.org/2001/xml-events" xmlns:xlink="http://www.w3.org/1999/xlink"><defs /><rect fill="#222222" height="300" width="200" x="0" y="0" /><text fill="#FFFFFF" style="font-size:12px; font-family:Arial; font-weight:bold;" x="10" y="20">Over 3km Runs</text><text fill="#FFFFFF" style="font-size:4px; font-family:Arial" x="10" y="280">ATHLETE</text><text fill="#FFFFFF" style="font-size:9px; font-family:Arial" x="10" y="290">Lynx</text><text fill="#FFFFFF" style="font-size:4px; font-family:Arial" x="120" y="280">STATISTICS</text><text fill="#FFFFFF" style="font-size:3px; font-family:Arial" x="120" y="285">Number: 1</text><text fill="#FFFFFF" style="font-size:3px; font-family:Arial" x="120" y="290">Weekly: 1.0</text><text fill="#FFFFFF" style="font-size:3px; font-family:Arial" x="141" y="285">Total: 4.8 km</text><text fill="#FFFFFF" style="font-size:3px; font-family:Arial" x="141" y="290">Avg: 4.8 km</text><text fill="#FFFFFF" style="font-size:3px; font-family:Arial" x="167" y="285">Min: 4.8 km</text><text fill="#FFFFFF" style="font-size:3px; font-family:Arial" x="167" y="290">Max: 4.8 km</text><polyline fill="none" points="151.19065468385816,173.8237385135144 153.1407748684287,165.3531618565321 154.11583495512605,161.11787165142596 155.09089504554868,156.882580190897 156.0659551359713,149.470817130059 155.09089504554868,145.2355222320184 154.11583495512605,141.00022608041763 154.11583495512605,136.764928676188 154.11583495512605,132.52963002119213 155.09089504554868,127.23550494387746 155.09089504554868,123.00020347349346 155.09089504554868,114.52959677577019 155.09089504554868,109.23546504788101 154.11583495512605,105.00015825498849 150.2155946008861,96.52954091969877 147.2904143333435,92.2942303745076 144.3652340658009,89.11774664372206 139.48993361741304,81.70594853442162 132.6645129919052,78.52946245670319 128.76427263393998,76.4118046797812 124.86403227970004,75.35297567490488 118.03861165046692,72.17648818995804 105.36283049359918,76.4118046797812 92.68704933300614,84.8824339080602 88.7868089787662,88.05891857855022 84.88656861707568,95.47071340214461 82.93644843995571,100.76485021412373 82.93644843995571,103.94133136421442 80.98632826283574,108.17663846630603 80.01126817241311,112.41194431763142 79.03620808571577,116.64724892005324 78.06114799529314,121.94137790799141 77.08608790487051,138.88257753290236 75.13596772775054,152.6472874833271 73.18584755063057,167.4708064896986 73.18584755063057,175.94138189591467 74.16090763732791,184.41195229627192 75.13596772775054,200.294258300215 77.08608790487051,207.7059950781986 78.06114799529314,215.11772802378982 88.7868089787662,229.94118241686374 96.58728969097137,231.0 112.18825111910701,229.94118241686374 119.01367174461484,227.82354701310396 126.81415245682001,224.6470933239907 138.5148735269904,220.41182063892484 144.3652340658009,215.11772802378982 149.2405345067382,205.5883563896641 149.2405345067382,200.294258300215 150.2155946008861,193.94133801199496 157.04101521894336,178.05902496352792 158.01607531309128,172.76491670776159 158.9911354035139,167.4708064896986 158.9911354035139,161.11787165142596 159.96619549021125,155.82375713437796 159.96619549021125,142.05905023403466 159.96619549021125,134.64727950561792 159.96619549021125,129.35315520875156 160.94125558063388,125.117854363285 160.94125558063388,120.88255226705223 158.9911354035139,109.23546504788101 157.04101521894336,105.00015825498849 154.11583495512605,99.70602300856262 148.26547442004085,89.11774664372206 142.41511388495564,84.8824339080602 131.68945290520787,77.47063361015171 126.81415245682001,76.4118046797812 122.91391209885478,75.35297567490488 115.11343138664961,75.35297567490488 109.26307085156441,76.4118046797812 104.38777040317655,79.58829122781754 96.58728969097137,83.82360552996397 92.68704933300614,88.05891857855022 86.83668879792094,95.47071340214461 84.88656861707568,99.70602300856262 82.93644843995571,105.00015825498849 81.96138834953308,108.17663846630603 80.98632826283574,111.3531179735437 79.03620808571577,116.64724892005324 77.08608790487051,126.1766796912998 77.08608790487051,132.52963002119213 76.11102781817317,137.82375314552337 76.11102781817317,143.11787431221455 75.13596772775054,153.70611077640206 74.16090763732791,160.05904890224338 73.18584755063057,165.3531618565321 73.18584755063057,170.64727285224944 73.18584755063057,174.8825602447614 73.18584755063057,185.47077324148268 74.16090763732791,190.7648768099025 74.16090763732791,196.0589784188196 75.13596772775054,201.35307807475328 79.03620808571577,209.8236334528774 81.96138834953308,214.05890926718712 88.7868089787662,220.41182063892484 92.68704933300614,222.52945713885128 101.46259013563395,226.7647291952744 105.36283049359918,226.7647291952744 110.23813093826175,226.7647291952744 119.01367174461484,225.70591129735112 123.88897218555212,223.5882752686739 127.78921254724264,221.4706389280036 133.63957308232784,217.23536530323327 145.34029415249825,210.88245252519846 149.2405345067382,204.52953692898154 151.19065468385816,199.235438445583 152.16571477800608,195.00015825312585 152.16571477800608,189.70605625305325 154.11583495512605,184.41195229627192 156.0659551359713,173.8237385135144 157.04101521894336,168.52962868940085 156.0659551359713,165.3531618565321 158.01607531309128,154.7649339940399 158.9911354035139,148.41199352405965 160.94125558063388,135.70610412862152 159.96619549021125,124.05902895703912 162.89137575775385,113.47077058535069 160.94125558063388,103.94133136421442 156.0659551359713,100.76485021412373 153.1407748684287,96.52954091969877 148.26547442004085,92.2942303745076 137.53981343656778,83.82360552996397 132.6645129919052,81.70594853442162 117.06355156749487,76.4118046797812 110.23813093826175,71.11765887215734 110.23813093826175,69.0 90.73692915216088,87.00009043328464 86.83668879792094,95.47071340214461 83.91150853410363,106.05898507218808 81.96138834953308,112.41194431763142 80.01126817241311,117.70607487205416 79.03620808571577,121.94137790799141 77.08608790487051,131.4708051616326 77.08608790487051,135.70610412862152 76.11102781817317,141.00022608041763 75.13596772775054,145.2355222320184 75.13596772775054,149.470817130059 74.16090763732791,159.0002260794863 73.18584755063057,164.29433942213655 73.18584755063057,169.58845081087202 72.21078746020794,174.8825602447614 72.21078746020794,180.17666772101074 72.21078746020794,190.7648768099025 76.11102781817317,200.294258300215 79.03620808571577,205.5883563896641 82.93644843995571,210.88245252519846 85.8616287112236,215.11772802378982 93.66210942342877,222.52945713885128 98.53740986436605,224.6470933239907 102.43765022605658,226.7647291952744 112.18825111910701,227.82354701310396 117.06355156749487,226.7647291952744 121.93885201215744,225.70591129735112 129.7393327243626,223.5882752686739 139.48993361741304,219.3530022734776 144.3652340658009,216.17654670309275 146.31535423919559,213.00009043049067 153.1407748684287,204.52953692898154 154.11583495512605,198.17661851644516 155.09089504554868,192.88251768890768 157.04101521894336,187.58841490466148 157.04101521894336,183.3531312700361 159.96619549021125,165.3531618565321 159.96619549021125,159.0002260794863 158.9911354035139,151.58846411295235 159.96619549021125,138.88257753290236 160.94125558063388,133.58845480438322 160.94125558063388,129.35315520875156 158.9911354035139,117.70607487205416 158.9911354035139,111.3531179735437 158.01607531309128,106.05898507218808 158.9911354035139,101.82367734331638 156.0659551359713,95.47071340214461 150.2155946008861,90.17657463252544 144.3652340658009,85.94126220885664 132.6645129919052,81.70594853442162 127.78921254724264,79.58829122781754 112.18825111910701,80.64711992163211 107.31295067071915,83.82360552996397 101.46259013563395,87.00009043328464 97.562349781394,90.17657463252544 89.76186906546354,97.58836835995317 86.83668879792094,103.94133136421442 84.88656861707568,108.17663846630603 82.93644843995571,112.41194431763142 81.96138834953308,116.64724892005324 78.06114799529314,126.1766796912998 78.06114799529314,131.4708051616326 76.11102781817317,135.70610412862152 76.11102781817317,141.00022608041763 75.13596772775054,147.35316983610392 75.13596772775054,159.0002260794863 74.16090763732791,165.3531618565321 73.18584755063057,170.64727285224944 72.21078746020794,182.2943101655692 74.16090763732791,191.823697286658 75.13596772775054,196.0589784188196 76.11102781817317,200.294258300215 80.98632826283574,207.7059950781986 82.93644843995571,210.88245252519846 85.8616287112236,214.05890926718712 92.68704933300614,219.3530022734776 96.58728969097137,222.52945713885128 102.43765022605658,225.70591129735112 112.18825111910701,226.7647291952744 117.06355156749487,226.7647291952744 122.91391209885478,226.7647291952744 127.78921254724264,225.70591129735112 137.53981343656778,221.4706389280036 141.44005379453301,218.29418382793665 145.34029415249825,215.11772802378982 148.26547442004085,210.88245252519846 149.2405345067382,208.76481430605054 150.2155946008861,204.52953692898154 152.16571477800608,198.17661851644516 153.1407748684287,190.7648768099025 154.11583495512605,180.17666772101074 155.09089504554868,175.94138189591467 156.0659551359713,167.4708064896986 155.09089504554868,162.17669432237744 155.09089504554868,157.94140317477286 154.11583495512605,148.41199352405965 156.0659551359713,145.2355222320184 157.04101521894336,141.00022608041763 158.01607531309128,137.82375314552337 158.9911354035139,134.64727950561792 159.96619549021125,130.4119802257046 160.94125558063388,126.1766796912998 163.86643584817648,117.70607487205416 165.81655602529645,113.47077058535069 161.91631566733122,106.05898507218808 159.96619549021125,102.88250439148396 158.01607531309128,99.70602300856262 151.19065468385816,94.41188580356538 147.2904143333435,90.17657463252544 138.5148735269904,84.8824339080602 134.61463316902518,82.764777071774 128.76427263393998,80.64711992163211 117.06355156749487,77.47063361015171 100.4875300489366,81.70594853442162 82.93644843995571,108.17663846630603 82.93644843995571,115.58842288516462 75.13596772775054,138.88257753290236 74.16090763732791,147.35316983610392 74.16090763732791,167.4708064896986 74.16090763732791,187.58841490466148 77.08608790487051,204.52953692898154 81.96138834953308,217.23536530323327 86.83668879792094,222.52945713885128 97.562349781394,228.88236475363374 105.36283049359918,228.88236475363374 112.18825111910701,227.82354701310396 118.03861165046692,225.70591129735112 133.63957308232784,223.5882752686739 138.5148735269904,221.4706389280036 142.41511388495564,219.3530022734776 147.2904143333435,214.05890926718712 149.2405345067382,209.8236334528774 152.16571477800608,206.6471757730469 154.11583495512605,199.235438445583 157.04101521894336,192.88251768890768 158.01607531309128,189.70605625305325 158.01607531309128,186.52959411311895 158.01607531309128,178.05902496352792 158.01607531309128,167.4708064896986 159.96619549021125,161.11787165142596 159.96619549021125,154.7649339940399 159.96619549021125,138.88257753290236 158.9911354035139,132.52963002119213 158.01607531309128,127.23550494387746 157.04101521894336,110.29429154843092 153.1407748684287,98.64719572477043 150.2155946008861,94.41188580356538 140.46499370411038,85.94126220885664 117.06355156749487,70.05882947705686 101.46259013563395,76.4118046797812 83.91150853410363,94.41188580356538 81.96138834953308,99.70602300856262 79.03620808571577,111.3531179735437 80.01126817241311,116.64724892005324 77.08608790487051,127.23550494387746 76.11102781817317,134.64727950561792 75.13596772775054,145.2355222320184 74.16090763732791,151.58846411295235 73.18584755063057,156.882580190897 73.18584755063057,162.17669432237744 72.21078746020794,167.4708064896986 72.21078746020794,173.8237385135144 72.21078746020794,185.47077324148268 73.18584755063057,189.70605625305325 73.18584755063057,196.0589784188196 77.08608790487051,206.6471757730469 79.03620808571577,209.8236334528774 84.88656861707568,217.23536530323327 88.7868089787662,219.3530022734776 93.66210942342877,222.52945713885128 103.41271031275392,226.7647291952744 107.31295067071915,227.82354701310396 118.03861165046692,228.88236475363374 122.91391209885478,227.82354701310396 127.78921254724264,226.7647291952744 136.56475334987044,222.52945713885128 143.39017397165298,216.17654670309275 146.31535423919559,213.00009043049067 148.26547442004085,209.8236334528774 150.2155946008861,200.294258300215 150.2155946008861,193.94133801199496 151.19065468385816,187.58841490466148 152.16571477800608,181.23548898100853 154.11583495512605,164.29433942213655 155.09089504554868,159.0002260794863 157.04101521894336,146.29434607177973 158.01607531309128,138.88257753290236 158.9911354035139,131.4708051616326 159.96619549021125,118.76490074861795 158.9911354035139,106.05898507218808 157.04101521894336,101.82367734331638 157.04101521894336,97.58836835995317 149.2405345067382,88.05891857855022 137.53981343656778,81.70594853442162 131.68945290520787,80.64711992163211 125.83909236639738,79.58829122781754 113.16331120580435,76.4118046797812 101.46259013563395,78.52946245670319 96.58728969097137,82.764777071774 82.93644843995571,102.88250439148396 80.98632826283574,106.05898507218808 79.03620808571577,112.41194431763142 77.08608790487051,125.117854363285 77.08608790487051,131.4708051616326 76.11102781817317,141.00022608041763 75.13596772775054,147.35316983610392 74.16090763732791,153.70611077640206 75.13596772775054,163.2355169095099 77.08608790487051,173.8237385135144 77.08608790487051,179.11784638278186 76.11102781817317,184.41195229627192 75.13596772775054,189.70605625305325 77.08608790487051,199.235438445583 78.06114799529314,203.47071739006788 80.98632826283574,211.9412715183571 85.8616287112236,218.29418382793665 91.7119892463088,221.4706389280036 97.562349781394,225.70591129735112 113.16331120580435,227.82354701310396 127.78921254724264,224.6470933239907 134.61463316902518,222.52945713885128 141.44005379453301,219.3530022734776 152.16571477800608,211.9412715183571 157.04101521894336,207.7059950781986 160.94125558063388,206.6471757730469 161.91631566733122,199.235438445583 161.91631566733122,193.94133801199496 160.94125558063388,188.64723561611027 160.94125558063388,179.11784638278186 160.94125558063388,170.64727285224944 160.94125558063388,167.4708064896986 160.94125558063388,163.2355169095099 159.96619549021125,159.0002260794863 159.96619549021125,153.70611077640206 159.96619549021125,149.470817130059 159.96619549021125,138.88257753290236 159.96619549021125,133.58845480438322 158.9911354035139,128.29433011449873 158.9911354035139,123.00020347349346 158.01607531309128,117.70607487205416 156.0659551359713,107.11781180649996 153.1407748684287,102.88250439148396 148.26547442004085,95.47071340214461 145.34029415249825,92.2942303745076 142.41511388495564,89.11774664372206 134.61463316902518,83.82360552996397 130.71439281478524,81.70594853442162 125.83909236639738,80.64711992163211 120.96379191800952,79.58829122781754 111.21319103240967,79.58829122781754 107.31295067071915,80.64711992163211 102.43765022605658,81.70594853442162 93.66210942342877,84.8824339080602 90.73692915216088,88.05891857855022 86.83668879792094,91.23540254309773 83.91150853410363,99.70602300856262 82.93644843995571,102.88250439148396 82.93644843995571,107.11781180649996 82.93644843995571,112.41194431763142 82.93644843995571,116.64724892005324 82.93644843995571,120.88255226705223 82.93644843995571,125.117854363285 80.98632826283574,133.58845480438322 79.03620808571577,136.764928676188 78.06114799529314,139.94140184484422 76.11102781817317,144.17669831216335 75.13596772775054,147.35316983610392 73.18584755063057,155.82375713437796 73.18584755063057,160.05904890224338 73.18584755063057,165.3531618565321 72.21078746020794,169.58845081087202 72.21078746020794,174.8825602447614 72.21078746020794,179.11784638278186 73.18584755063057,188.64723561611027 76.11102781817317,197.1177985072136 78.06114799529314,202.41189777012914 80.01126817241311,206.6471757730469 82.93644843995571,210.88245252519846 88.7868089787662,217.23536530323327 91.7119892463088,221.4706389280036 95.61222960054874,223.5882752686739 104.38777040317655,228.88236475363374 108.28801076114178,229.94118241686374 119.98873183503747,231.0 124.86403227970004,229.94118241686374 134.61463316902518,224.6470933239907 142.41511388495564,218.29418382793665 154.11583495512605,209.8236334528774 161.91631566733122,199.235438445583 162.89137575775385,190.7648768099025 162.89137575775385,177.00020346883684 161.91631566733122,170.64727285224944 160.94125558063388,163.2355169095099 160.94125558063388,156.882580190897 161.91631566733122,135.70610412862152 161.91631566733122,129.35315520875156 161.91631566733122,121.94137790799141 160.94125558063388,109.23546504788101 156.0659551359713,96.52954091969877 147.2904143333435,87.00009043328464 141.44005379453301,82.764777071774 135.5896932594478,79.58829122781754 128.76427263393998,77.47063361015171 117.06355156749487,73.23531743139029 113.16331120580435,75.35297567490488 99.51246995851398,80.64711992163211 95.61222960054874,84.8824339080602 91.7119892463088,87.00009043328464 85.8616287112236,93.3530581286177 84.88656861707568,97.58836835995317 84.88656861707568,101.82367734331638 82.93644843995571,106.05898507218808 81.96138834953308,109.23546504788101 80.98632826283574,116.64724892005324 80.98632826283574,120.88255226705223 80.01126817241311,126.1766796912998 79.03620808571577,130.4119802257046 78.06114799529314,135.70610412862152 78.06114799529314,139.94140184484422 78.06114799529314,149.470817130059 77.08608790487051,154.7649339940399 76.11102781817317,160.05904890224338 75.13596772775054,164.29433942213655 74.16090763732791,169.58845081087202 74.16090763732791,173.8237385135144 72.21078746020794,183.3531312700361 73.18584755063057,187.58841490466148 73.18584755063057,192.88251768890768 76.11102781817317,202.41189777012914 79.03620808571577,206.6471757730469 83.91150853410363,211.9412715183571 86.83668879792094,214.05890926718712 89.76186906546354,216.17654670309275 93.66210942342877,218.29418382793665 98.53740986436605,220.41182063892484 103.41271031275392,223.5882752686739 114.13837129995227,226.7647291952744 119.98873183503747,226.7647291952744 125.83909236639738,226.7647291952744 131.68945290520787,225.70591129735112 145.34029415249825,219.3530022734776 148.26547442004085,216.17654670309275 150.2155946008861,211.9412715183571 154.11583495512605,204.52953692898154 156.0659551359713,201.35307807475328 156.0659551359713,197.1177985072136 157.04101521894336,190.7648768099025 158.01607531309128,187.58841490466148 158.01607531309128,183.3531312700361 158.01607531309128,179.11784638278186 158.01607531309128,175.94138189591467 158.01607531309128,171.70609482005239 158.9911354035139,167.4708064896986 159.96619549021125,159.0002260794863 159.96619549021125,154.7649339940399 160.94125558063388,149.470817130059 160.94125558063388,145.2355222320184 161.91631566733122,139.94140184484422 162.89137575775385,129.35315520875156 162.89137575775385,121.94137790799141 150.2155946008861,89.11774664372206 131.68945290520787,78.52946245670319 89.76186906546354,85.94126220885664 79.03620808571577,113.47077058535069 73.18584755063057,138.88257753290236 74.16090763732791,147.35316983610392 75.13596772775054,156.882580190897 62.46018656715751,165.3531618565321 54.659705851227045,175.94138189591467 54.659705851227045,185.47077324148268 41.9839246943593,203.47071739006788 38.08368433639407,206.6471757730469 34.18344397842884,209.8236334528774 34.18344397842884,209.8236334528774 35.15850406885147,209.8236334528774 35.15850406885147,209.8236334528774 35.15850406885147,209.8236334528774 35.15850406885147,209.8236334528774 50.759465496987104,207.7059950781986 53.684645768254995,214.05890926718712 66.36042692512274,215.11772802378982 75.13596772775054,219.3530022734776 79.03620808571577,220.41182063892484 81.96138834953308,222.52945713885128 85.8616287112236,224.6470933239907 88.7868089787662,225.70591129735112 93.66210942342877,226.7647291952744 104.38777040317655,231.0 121.93885201215744,231.0 130.71439281478524,226.7647291952744 134.61463316902518,224.6470933239907 138.5148735269904,222.52945713885128 144.3652340658009,216.17654670309275 147.2904143333435,213.00009043049067 149.2405345067382,210.88245252519846 150.2155946008861,204.52953692898154 151.19065468385816,200.294258300215 150.2155946008861,197.1177985072136 152.16571477800608,189.70605625305325 152.16571477800608,185.47077324148268 153.1407748684287,182.2943101655692 153.1407748684287,178.05902496352792 153.1407748684287,174.8825602447614 154.11583495512605,170.64727285224944 155.09089504554868,165.3531618565321 154.11583495512605,153.70611077640206 155.09089504554868,147.35316983610392 156.0659551359713,142.05905023403466 156.0659551359713,135.70610412862152 156.0659551359713,123.00020347349346 157.04101521894336,117.70607487205416 155.09089504554868,106.05898507218808 149.2405345067382,96.52954091969877 146.31535423919559,92.2942303745076 143.39017397165298,88.05891857855022 135.5896932594478,82.764777071774 132.6645129919052,80.64711992163211 128.76427263393998,79.58829122781754 119.98873183503747,76.4118046797812 116.08849147334695,76.4118046797812 112.18825111910701,76.4118046797812 103.41271031275392,76.4118046797812 99.51246995851398,78.52946245670319 90.73692915216088,83.82360552996397 85.8616287112236,91.23540254309773 83.91150853410363,99.70602300856262 82.93644843995571,103.94133136421442 82.93644843995571,109.23546504788101 82.93644843995571,113.47077058535069 82.93644843995571,117.70607487205416 81.96138834953308,127.23550494387746 80.01126817241311,135.70610412862152 79.03620808571577,139.94140184484422 78.06114799529314,144.17669831216335 76.11102781817317,148.41199352405965 76.11102781817317,152.6472874833271 74.16090763732791,156.882580190897 73.18584755063057,164.29433942213655 73.18584755063057,167.4708064896986 72.21078746020794,171.70609482005239 72.21078746020794,175.94138189591467 71.2357273735106,180.17666772101074 72.21078746020794,189.70605625305325 73.18584755063057,195.00015825312585 77.08608790487051,204.52953692898154 79.03620808571577,208.76481430605054 85.8616287112236,216.17654670309275 89.76186906546354,218.29418382793665 96.58728969097137,223.5882752686739 100.4875300489366,224.6470933239907 104.38777040317655,226.7647291952744 112.18825111910701,225.70591129735112 109.26307085156441,224.6470933239907 106.3378905840218,223.5882752686739 106.3378905840218,223.5882752686739 133.63957308232784,222.52945713885128 152.16571477800608,211.9412715183571" stroke="yellow" stroke-linecap="round" stroke-linejoin="round" stroke-width="0.5"><title>2020-12-14 4.8km</title></polyline></svg>