<?xml version="1.0" encoding="utf-8" ?>
<svg baseProfile="full" height="300mm" version="1.1" viewBox="0,0,200,300" width="200mm" xmlns="http://www.w3.org/2000/svg" xmlns:ev="http://www.w3.org/2001/xml-events" xmlns:xlink="http://www.w3.org/1999/xlink"><defs /><rect fill="#222222" height="300" width="200" x="0" y="0" /><text fill="#FFFFFF" style="font-size:12px; font-family:Arial; font-weight:bold;" x="10" y="20">Over 3km Runs</text><text fill="#FFFFFF" style="font-size:4px; font-family:Arial" x="10" y="280">ATHLETE</text><text fill="#FFFFFF" style="font-size:9px; font-family:Arial" x="10" y="290">Lynx</text><text fill="#FFFFFF" style="font-size:4px; font-family:Arial" x="120" y="280">STATISTICS</text><text fill="#FFFFFF" style="font-size:3px; font-family:Arial" x="120" y="285">Number: 2</text><text fill="#FFFFFF" style="font-size:3px; font-family:Arial" x="120" y="290">Weekly: 2.0</text><text fill="#FFFFFF" style="font-size:3px; font-family:Arial" x="141" y="285">Total: 9.2 km</text><text fill="#FFFFFF" style="font-size:3px; font-family:Arial" x="141" y="290">Avg: 4.6 km</text><text fill="#FFFFFF" style="font-size:3px; font-family:Arial" x="167" y="285">Min: 4.4 km</text><text fill="#FFFFFF" style="font-size:3px; font-family:Arial" x="167" y="290">Max: 4.8 km</text><polyline fill="none" points="134.12710312008858,105.88249234203249 135.42718324437737,100.23544123768806 136.07722330093384,97.41191443428397 136.7272633612156,94.58838679362088 137.37730342149734,89.64721142034978 136.7272633612156,86.82368148770183 136.07722330093384,84.00015071965754 136.07722330093384,81.17661911714822 136.07722330093384,78.35308668017387 136.7272633612156,74.82366996165365 136.7272633612156,72.00013564899564 136.7272633612156,66.35306451655924 136.7272633612156,62.823643364943564 136.07722330093384,60.00010550301522 133.4770630635321,54.35302727948874 131.52694288641214,51.52948691602796 129.57682270556688,49.411831095814705 126.3266224078834,44.47063235659152 121.77634199336171,42.35297497082502 119.17618175595999,40.94120312016457 116.57602151855826,40.23531711567193 112.02574109658599,38.117658792994916 103.57522032782435,40.94120312016457 95.12469955533743,46.58828927204013 92.5245393179357,48.70594571903348 89.92437907680869,53.647142267785966 88.62429895997047,57.17656680941582 88.62429895997047,59.29422090854496 87.32421883940697,62.11775897722691 86.67417877912521,64.94129621144384 86.02413872256875,67.76483261305839 85.374098662287,71.2942519383505 84.72405860200524,82.58838502224535 83.42397848516703,91.76485832221806 82.12389836460352,101.64720432646573 82.12389836460352,107.29425459727645 82.77393842115998,112.94130153022707 83.42397848516703,123.52950553316623 84.72405860200524,128.47066338546574 85.374098662287,133.4118186822161 92.5245393179357,143.29412161093205 97.72485979273915,144.0 108.12550074234605,143.29412161093205 112.67578116059303,141.88236467540264 117.87610163539648,139.76472888235003 125.67658235132694,136.94121375959367 129.57682270556688,133.4118186822161 132.82702300325036,127.05890425946563 132.82702300325036,123.52950553316623 133.4770630635321,119.29422534164041 138.0273434780538,108.7060166420415 138.67738353833556,105.17661113850772 139.3274236023426,101.64720432646573 139.3274236023426,97.41191443428397 139.97746365517378,93.88250475563109 139.97746365517378,84.70603348966688 139.97746365517378,79.76485300343484 139.97746365517378,76.23543680552393 140.62750371918082,73.41190290823579 140.62750371918082,70.58836817834526 139.3274236023426,62.823643364943564 138.0273434780538,60.00010550301522 136.07722330093384,56.470682005397975 132.1769829429686,49.411831095814705 128.27674258872867,46.58828927204013 121.12630193307996,41.64708907343447 117.87610163539648,40.94120312016457 115.27594139799476,40.23531711567193 110.07562092319131,40.23531711567193 106.17538056522608,40.94120312016457 102.9251802675426,43.05886081792414 97.72485979273915,45.88240368664265 95.12469955533743,48.70594571903348 91.2244591973722,53.647142267785966 89.92437907680869,56.470682005397975 88.62429895997047,60.00010550301522 87.97425889596343,62.11775897722691 87.32421883940697,64.23541198205203 86.02413872256875,67.76483261305839 84.72405860200524,74.11778646055609 84.72405860200524,78.35308668017387 84.07401854172349,81.88250209670514 84.07401854172349,85.41191620752215 83.42397848516703,92.47074051667005 82.77393842115998,96.70603260118514 82.12389836460352,100.23544123768806 82.12389836460352,103.76484856847674 82.12389836460352,106.58837349619716 82.12389836460352,113.64718216098845 82.77393842115998,117.17658453993499 82.77393842115998,120.70598561223596 83.42397848516703,124.23538538254797 86.02413872256875,129.88242230191827 87.97425889596343,132.70593951176852 92.5245393179357,136.94121375959367 95.12469955533743,138.35297142527997 100.97506008669734,141.1764861298725 103.57522032782435,141.1764861298725 106.82542062178254,141.1764861298725 112.67578116059303,140.47060753125697 115.92598145455122,139.05885017849505 118.52614169567823,137.6470926180482 122.42638205364347,134.82357686851174 130.22686276584864,130.58830168284476 132.82702300325036,126.35302461963147 134.12710312008858,122.8236256306991 134.77714318037033,120.0001055020839 134.77714318037033,116.47070416808128 136.07722330093384,112.94130153022707 137.37730342149734,105.88249234203249 138.0273434780538,102.35308579262346 137.37730342149734,100.23544123768806 138.67738353833556,93.17662266269326 139.3274236023426,88.94132901541889 140.62750371918082,80.47073608543724 139.97746365517378,72.70601930469275 141.92758383601904,65.64718039054424 140.62750371918082,59.29422090854496 137.37730342149734,57.17656680941582 135.42718324437737,54.35302727948874 132.1769829429686,51.52948691602796 125.0265422873199,45.88240368664265 121.77634199336171,44.47063235659152 111.37570104375482,40.94120312016457 106.82542062178254,37.41177258081734 106.82542062178254,36.0 93.82461943477392,48.000060288235545 91.2244591973722,53.647142267785966 89.27433902025223,60.705990048125386 87.97425889596343,64.94129621144384 86.67417877912521,68.47071658167988 86.02413872256875,71.2942519383505 84.72405860200524,77.64720344077796 84.72405860200524,80.47073608543724 84.07401854172349,84.00015071965754 83.42397848516703,86.82368148770183 83.42397848516703,89.64721142034978 82.77393842115998,96.00015071965754 82.12389836460352,99.52955961506814 82.12389836460352,103.05896720662713 81.47385830432177,106.58837349619716 81.47385830432177,110.11777848005295 81.47385830432177,117.17658453993499 84.07401854172349,123.52950553316623 86.02413872256875,127.05890425946563 88.62429895997047,130.58830168284476 90.57441913709044,133.4118186822161 95.77473961189389,138.35297142527997 99.02493990957737,139.76472888235003 101.6251001469791,141.1764861298725 108.12550074234605,141.88236467540264 111.37570104375482,141.1764861298725 114.625901337713,140.47060753125697 119.82622181251645,139.05885017849505 126.3266224078834,136.23533484898508 129.57682270556688,134.11769780237228 130.8769028261304,132.0000602863729 135.42718324437737,126.35302461963147 136.07722330093384,122.11774567794055 136.7272633612156,118.5883451262489 138.0273434780538,115.05894326977432 138.0273434780538,112.2354208463803 139.97746365517378,100.23544123768806 139.97746365517378,96.00015071965754 139.3274236023426,91.05897607468069 139.97746365517378,82.58838502224535 140.62750371918082,79.05896986927837 140.62750371918082,76.23543680552393 139.3274236023426,68.47071658167988 139.3274236023426,64.23541198205203 138.67738353833556,60.705990048125386 139.3274236023426,57.88245156221092 137.37730342149734,53.647142267785966 133.4770630635321,50.11771642137319 129.57682270556688,47.29417480528355 121.77634199336171,44.47063235659152 118.52614169567823,43.05886081792414 108.12550074234605,43.764746613800526 104.87530044466257,45.88240368664265 100.97506008669734,48.000060288235545 98.3748998530209,50.11771642137319 93.17457937449217,55.05891223996878 91.2244591973722,59.29422090854496 89.92437907680869,62.11775897722691 88.62429895997047,64.94129621144384 87.97425889596343,67.76483261305839 85.374098662287,74.11778646055609 85.374098662287,77.64720344077796 84.07401854172349,80.47073608543724 84.07401854172349,84.00015071965754 83.42397848516703,88.23544655740261 83.42397848516703,96.00015071965754 82.77393842115998,100.23544123768806 82.12389836460352,103.76484856847674 81.47385830432177,111.52954011037946 82.77393842115998,117.88246485777199 83.42397848516703,120.70598561223596 84.07401854172349,123.52950553316623 87.32421883940697,128.47066338546574 88.62429895997047,130.58830168284476 90.57441913709044,132.70593951176852 95.12469955533743,136.23533484898508 97.72485979273915,138.35297142527997 101.6251001469791,140.47060753125697 108.12550074234605,141.1764861298725 111.37570104375482,141.1764861298725 115.27594139799476,141.1764861298725 118.52614169567823,140.47060753125697 125.0265422873199,137.6470926180482 127.62670252844691,135.5294558852911 130.22686276584864,133.4118186822161 132.1769829429686,130.58830168284476 132.82702300325036,129.17654287070036 133.4770630635321,126.35302461963147 134.77714318037033,122.11774567794055 135.42718324437737,117.17658453993499 136.07722330093384,110.11777848005295 136.7272633612156,107.29425459727645 137.37730342149734,101.64720432646573 136.7272633612156,98.11779621429741 136.7272633612156,95.2942687831819 136.07722330093384,88.94132901541889 137.37730342149734,86.82368148770183 138.0273434780538,84.00015071965754 138.67738353833556,81.88250209670514 139.3274236023426,79.76485300343484 139.97746365517378,76.9413201501593 140.62750371918082,74.11778646055609 142.5776238963008,68.47071658167988 143.877704013139,65.64718039054424 141.27754377573729,60.705990048125386 139.97746365517378,58.58833626098931 138.67738353833556,56.470682005397975 134.12710312008858,52.94125720206648 131.52694288641214,50.11771642137319 125.67658235132694,46.58828927204013 123.07642211019993,45.176518047228456 119.17618175595999,43.764746613800526 111.37570104375482,41.64708907343447 100.32502003014088,44.47063235659152 88.62429895997047,62.11775897722691 88.62429895997047,67.05894858948886 83.42397848516703,82.58838502224535 82.77393842115998,88.23544655740261 82.77393842115998,101.64720432646573 82.77393842115998,115.05894326977432 84.72405860200524,126.35302461963147 87.97425889596343,134.82357686851174 91.2244591973722,138.35297142527997 98.3748998530209,142.58824316877872 103.57522032782435,142.58824316877872 108.12550074234605,141.88236467540264 112.02574109658599,140.47060753125697 122.42638205364347,139.05885017849505 125.67658235132694,137.6470926180482 128.27674258872867,136.23533484898508 131.52694288641214,132.70593951176852 132.82702300325036,129.88242230191827 134.77714318037033,127.76478384807706 136.07722330093384,122.8236256306991 138.0273434780538,118.5883451262489 138.67738353833556,116.47070416808128 138.67738353833556,114.35306274145842 138.67738353833556,108.7060166420415 138.67738353833556,101.64720432646573 139.97746365517378,97.41191443428397 139.97746365517378,93.17662266269326 139.97746365517378,82.58838502224535 139.3274236023426,78.35308668017387 138.67738353833556,74.82366996165365 138.0273434780538,63.529527698643506 135.42718324437737,55.76479714922607 133.4770630635321,52.94125720206648 126.97666246816516,47.29417480528355 111.37570104375482,36.705886317417026 100.97506008669734,40.94120312016457 89.27433902025223,52.94125720206648 87.97425889596343,56.470682005397975 86.02413872256875,64.23541198205203 86.67417877912521,67.76483261305839 84.72405860200524,74.82366996165365 84.07401854172349,79.76485300343484 83.42397848516703,86.82368148770183 82.77393842115998,91.05897607468069 82.12389836460352,94.58838679362088 82.12389836460352,98.11779621429741 81.47385830432177,101.64720432646573 81.47385830432177,105.88249234203249 81.47385830432177,113.64718216098845 82.12389836460352,116.47070416808128 82.12389836460352,120.70598561223596 84.72405860200524,127.76478384807706 86.02413872256875,129.88242230191827 89.92437907680869,134.82357686851174 92.5245393179357,136.23533484898508 95.77473961189389,138.35297142527997 102.27514020726085,141.1764861298725 104.87530044466257,141.88236467540264 112.02574109658599,142.58824316877872 115.27594139799476,141.88236467540264 118.52614169567823,141.1764861298725 124.37650223076344,138.35297142527997 128.92678264528513,134.11769780237228 130.8769028261304,132.0000602863729 132.1769829429686,129.88242230191827 133.4770630635321,123.52950553316623 133.4770630635321,119.29422534164041 134.12710312008858,115.05894326977432 134.77714318037033,110.82365932036191 136.07722330093384,99.52955961506814 136.7272633612156,96.00015071965754 138.0273434780538,87.52956404816359 138.67738353833556,82.58838502224535 139.3274236023426,77.64720344077796 139.97746365517378,69.17660049907863 139.3274236023426,60.705990048125386 138.0273434780538,57.88245156221092 138.0273434780538,55.05891223996878 132.82702300325036,48.70594571903348 125.0265422873199,44.47063235659152 121.12630193307996,43.764746613800526 117.22606157511473,43.05886081792414 108.7755408026278,40.94120312016457 100.97506008669734,42.35297497082502 97.72485979273915,45.176518047228456 88.62429895997047,58.58833626098931 87.32421883940697,60.705990048125386 86.02413872256875,64.94129621144384 84.72405860200524,73.41190290823579 84.72405860200524,77.64720344077796 84.07401854172349,84.00015071965754 83.42397848516703,88.23544655740261 82.77393842115998,92.47074051667005 83.42397848516703,98.82367793936282 84.72405860200524,105.88249234203249 84.72405860200524,109.41189758852124 84.07401854172349,112.94130153022707 83.42397848516703,116.47070416808128 84.72405860200524,122.8236256306991 85.374098662287,125.6471449257806 87.32421883940697,131.29418101161718 90.57441913709044,135.5294558852911 94.47465949505568,137.6470926180482 98.3748998530209,140.47060753125697 108.7755408026278,141.88236467540264 118.52614169567823,139.76472888235003 123.07642211019993,138.35297142527997 127.62670252844691,136.23533484898508 134.77714318037033,131.29418101161718 138.0273434780538,128.47066338546574 140.62750371918082,127.76478384807706 141.27754377573729,122.8236256306991 141.27754377573729,119.29422534164041 140.62750371918082,115.76482374407351 140.62750371918082,109.41189758852124 140.62750371918082,103.76484856847674 140.62750371918082,101.64720432646573 140.62750371918082,98.82367793936282 139.97746365517378,96.00015071965754 139.97746365517378,92.47074051667005 139.97746365517378,89.64721142034978 139.97746365517378,82.58838502224535 139.97746365517378,79.05896986927837 139.3274236023426,75.52955340966582 139.3274236023426,72.00013564899564 138.67738353833556,68.47071658167988 137.37730342149734,61.4118745373562 135.42718324437737,58.58833626098931 132.1769829429686,53.647142267785966 130.22686276584864,51.52948691602796 128.27674258872867,49.411831095814705 123.07642211019993,45.88240368664265 120.4762618765235,44.47063235659152 117.22606157511473,43.764746613800526 113.97586127743125,43.05886081792414 107.47546068578959,43.05886081792414 104.87530044466257,43.764746613800526 101.6251001469791,44.47063235659152 95.77473961189389,46.58828927204013 93.82461943477392,48.70594571903348 91.2244591973722,50.82360169477761 89.27433902025223,56.470682005397975 88.62429895997047,58.58833626098931 88.62429895997047,61.4118745373562 88.62429895997047,64.94129621144384 88.62429895997047,67.76483261305839 88.62429895997047,70.58836817834526 88.62429895997047,73.41190290823579 87.32421883940697,79.05896986927837 86.02413872256875,81.17661911714822 85.374098662287,83.29426789656281 84.07401854172349,86.11779887415469 83.42397848516703,88.23544655740261 82.12389836460352,93.88250475563109 82.12389836460352,96.70603260118514 82.12389836460352,100.23544123768806 81.47385830432177,103.05896720662713 81.47385830432177,106.58837349619716 81.47385830432177,109.41189758852124 82.12389836460352,115.76482374407351 84.07401854172349,121.41186567116529 85.374098662287,124.94126517977566 86.67417877912521,127.76478384807706 88.62429895997047,130.58830168284476 92.5245393179357,134.82357686851174 94.47465949505568,137.6470926180482 97.0748197324574,139.05885017849505 102.9251802675426,142.58824316877872 105.52534050494432,143.29412161093205 113.32582122087479,144.0 116.57602151855826,143.29412161093205 123.07642211019993,139.76472888235003 128.27674258872867,135.5294558852911 136.07722330093384,129.88242230191827 141.27754377573729,122.8236256306991 141.92758383601904,117.17658453993499 141.92758383601904,108.00013564527035 141.27754377573729,103.76484856847674 140.62750371918082,98.82367793936282 140.62750371918082,94.58838679362088 141.27754377573729,80.47073608543724 141.27754377573729,76.23543680552393 141.27754377573729,71.2942519383505 140.62750371918082,62.823643364943564 137.37730342149734,54.35302727948874 131.52694288641214,48.000060288235545 127.62670252844691,45.176518047228456 123.72646217048168,43.05886081792414 119.17618175595999,41.64708907343447 111.37570104375482,38.82354495394975 108.7755408026278,40.23531711567193 99.67497996985912,43.764746613800526 97.0748197324574,46.58828927204013 94.47465949505568,48.000060288235545 90.57441913709044,52.235372085124254 89.92437907680869,55.05891223996878 89.92437907680869,57.88245156221092 88.62429895997047,60.705990048125386 87.97425889596343,62.823643364943564 87.32421883940697,67.76483261305839 87.32421883940697,70.58836817834526 86.67417877912521,74.11778646055609 86.02413872256875,76.9413201501593 85.374098662287,80.47073608543724 85.374098662287,83.29426789656281 85.374098662287,89.64721142034978 84.72405860200524,93.17662266269326 84.07401854172349,96.70603260118514 83.42397848516703,99.52955961506814 82.77393842115998,103.05896720662713 82.77393842115998,105.88249234203249 81.47385830432177,112.2354208463803 82.12389836460352,115.05894326977432 82.12389836460352,118.5883451262489 84.07401854172349,124.94126517977566 86.02413872256875,127.76478384807706 89.27433902025223,131.29418101161718 91.2244591973722,132.70593951176852 93.17457937449217,134.11769780237228 95.77473961189389,135.5294558852911 99.02493990957737,136.94121375959367 102.27514020726085,139.05885017849505 109.42558086290956,141.1764861298725 113.32582122087479,141.1764861298725 117.22606157511473,141.1764861298725 121.12630193307996,140.47060753125697 130.22686276584864,136.23533484898508 132.1769829429686,134.11769780237228 133.4770630635321,131.29418101161718 136.07722330093384,126.35302461963147 137.37730342149734,124.23538538254797 137.37730342149734,121.41186567116529 138.0273434780538,117.17658453993499 138.67738353833556,115.05894326977432 138.67738353833556,112.2354208463803 138.67738353833556,109.41189758852124 138.67738353833556,107.29425459727645 138.67738353833556,104.47072988003492 139.3274236023426,101.64720432646573 139.97746365517378,96.00015071965754 139.97746365517378,93.17662266269326 140.62750371918082,89.64721142034978 140.62750371918082,86.82368148770183 141.27754377573729,83.29426789656281 141.92758383601904,76.23543680552393 141.92758383601904,71.2942519383505 133.4770630635321,49.411831095814705 121.12630193307996,42.35297497082502 93.17457937449217,47.29417480528355 86.02413872256875,65.64718039054424 82.12389836460352,82.58838502224535 82.77393842115998,88.23544655740261 83.42397848516703,94.58838679362088 74.97345770895481,100.23544123768806 69.77313723415136,107.29425459727645 69.77313723415136,113.64718216098845 61.32261646166444,125.6471449257806 58.722456220537424,127.76478384807706 56.1222959831357,129.88242230191827 56.1222959831357,129.88242230191827 56.772336043417454,129.88242230191827 56.772336043417454,129.88242230191827 56.772336043417454,129.88242230191827 56.772336043417454,129.88242230191827 67.17297699674964,128.47066338546574 69.1230971775949,132.70593951176852 77.57361794635653,133.4118186822161 83.42397848516703,136.23533484898508 86.02413872256875,136.94121375959367 87.97425889596343,138.35297142527997 90.57441913709044,139.76472888235003 92.5245393179357,140.47060753125697 95.77473961189389,141.1764861298725 102.9251802675426,144.0 114.625901337713,144.0 120.4762618765235,141.1764861298725 123.07642211019993,139.76472888235003 125.67658235132694,138.35297142527997 129.57682270556688,134.11769780237228 131.52694288641214,132.0000602863729 132.82702300325036,130.58830168284476 133.4770630635321,126.35302461963147 134.12710312008858,123.52950553316623 133.4770630635321,121.41186567116529 134.77714318037033,116.47070416808128 134.77714318037033,113.64718216098845 135.42718324437737,111.52954011037946 135.42718324437737,108.7060166420415 135.42718324437737,106.58837349619716 136.07722330093384,103.76484856847674 136.7272633612156,100.23544123768806 136.07722330093384,92.47074051667005 136.7272633612156,88.23544655740261 137.37730342149734,84.70603348966688 137.37730342149734,80.47073608543724 137.37730342149734,72.00013564899564 138.0273434780538,68.47071658167988 136.7272633612156,60.705990048125386 132.82702300325036,54.35302727948874 130.8769028261304,51.52948691602796 128.92678264528513,48.70594571903348 123.72646217048168,45.176518047228456 121.77634199336171,43.764746613800526 119.17618175595999,43.05886081792414 113.32582122087479,40.94120312016457 110.72566097974777,40.94120312016457 108.12550074234605,40.94120312016457 102.27514020726085,40.94120312016457 99.67497996985912,42.35297497082502 93.82461943477392,45.88240368664265 90.57441913709044,50.82360169477761 89.27433902025223,56.470682005397975 88.62429895997047,59.29422090854496 88.62429895997047,62.823643364943564 88.62429895997047,65.64718039054424 88.62429895997047,68.47071658167988 87.97425889596343,74.82366996165365 86.67417877912521,80.47073608543724 86.02413872256875,83.29426789656281 85.374098662287,86.11779887415469 84.07401854172349,88.94132901541889 84.07401854172349,91.76485832221806 82.77393842115998,94.58838679362088 82.12389836460352,99.52955961506814 82.12389836460352,101.64720432646573 81.47385830432177,104.47072988003492 81.47385830432177,107.29425459727645 80.8238182477653,110.11777848005295 81.47385830432177,116.47070416808128 82.12389836460352,120.0001055020839 84.72405860200524,126.35302461963147 86.02413872256875,129.17654287070036 90.57441913709044,134.11769780237228 93.17457937449217,135.5294558852911 97.72485979273915,139.05885017849505 100.32502003014088,139.76472888235003 102.9251802675426,141.1764861298725 108.12550074234605,140.47060753125697 106.17538056522608,139.76472888235003 104.22526038438082,139.05885017849505 104.22526038438082,139.05885017849505 122.42638205364347,138.35297142527997 134.77714318037033,131.29418101161718" stroke="#ff0000" stroke-linecap="round" stroke-linejoin="round" stroke-width="0.5"><title>2020-12-14 4.8km</title></polyline><polyline fill="none" points="127.27090300992131,173.7183982966235 127.51170568540692,174.63363053789362 127.27090300992131,175.41811493900605 127.9933110368438,176.33334630099125 127.7525083613582,177.24857718939893 127.63210702314973,177.77156605618075 127.51170568540692,178.29455476813018 127.27090300992131,179.34053172857966 126.78929765848443,179.73277292924467 126.42809364572167,180.2557610614458 126.18729096930474,180.64800205954816 125.82608695654199,181.1709899212001 125.70568561879918,181.43248379405122 125.34448160557076,181.82472453126684 124.86287625366822,182.73995257925708 124.5016722404398,183.2629398230929 124.26086956495419,183.7859269118635 123.89966555172578,184.30891384650022 123.65886287624016,184.83190062618814 123.05685618706048,185.87787372223102 122.93645484978333,186.40086003823671 122.81605351157486,186.9238461999921 122.57525083608925,187.57757868419867 122.33444816060364,187.9698180591222 122.33444816060364,188.49280375696253 121.73244147095829,189.2772820139071 121.01003344496712,189.93101362907328 120.76923076901585,190.58474500267766 120.52842809353024,191.10772992740385 120.28762541804463,191.63071469822899 119.8060200670734,192.1536993138725 119.32441471563652,193.46116017713211 118.60200668871403,194.50712817243766 118.36120401369408,195.0301119381329 118.1204013377428,195.55309554934502 117.75919732451439,196.07607900572475 117.51839464856312,196.46831649693195 117.27759197354317,196.86055390106048 116.79598662210628,197.7757741723908 116.55518394662067,198.69099397026002 116.3143812706694,199.73695887438953 116.55518394662067,200.65217765804846 115.83277591969818,201.43665052461438 115.4715719060041,201.95963224221487 114.98996655503288,202.48261380533222 114.26755852811038,203.39783116895705 114.02675585309044,203.92081230715849 113.78595317713916,204.3130480593536 113.30434782616794,205.0975193028571 113.18394648842514,205.62049993884284 112.94314381247386,206.01273531408515 112.70234113745391,206.53571567952167 112.46153846150264,206.9279508520849 112.22073578601703,207.9739108873764 112.22073578601703,208.62763559515588 111.618729097303,209.54284978099167 111.618729097303,210.06582910288125 111.49832775909454,210.58880827063695 111.37792642135173,211.11178728356026 111.13712374540046,212.28848949749954 111.01672240812331,212.94221261166967 110.89632107038051,213.46519092912786 110.6555183948949,213.9881690921029 110.77591973217204,215.03412495437078 110.77591973217204,215.6878470540978 110.77591973217204,216.34156891261227 110.77591973217204,216.99529052968137 110.89632107038051,218.17198883160017 111.13712374540046,218.9564539315179 111.13712374540046,219.74091868370306 111.37792642135173,220.39463904488366 111.618729097303,221.44059112062678 111.618729097303,221.9635669265408 111.618729097303,222.61728646676056 111.85953177232295,223.79398103058338 112.10033444827422,224.18621237808838 112.22073578601703,224.70918737258762 112.34113712375984,225.10141851729713 112.70234113745391,225.62439324136358 112.70234113745391,226.67034222616348 112.70234113745391,227.19331648666412 112.82274247473106,227.71629059268162 112.94314381247386,228.10852107068058 112.82274247473106,228.50075146183372 113.18394648842514,229.15446858713403 114.02675585309044,229.15446858713403 114.38795986631885,229.02372518158518 114.86956521682441,228.89298176614102 115.23076923051849,228.76223834080156 115.5919732437469,228.50075146183372 116.07357859564945,228.23926454386674 116.43478260887787,228.10852107068058 117.39799331082031,228.10852107068058 118.60200668871403,228.23926454386674 119.32441471563652,228.50075146183372 120.04682274209335,228.37000800750684 120.64882943127304,228.50075146183372 121.25083612045273,228.76223834080156 122.69565217383206,229.02372518158518 123.65886287624016,229.02372518158518 124.26086956495419,229.28521198348608 125.70568561879918,229.28521198348608 126.42809364572167,229.41595536971 127.872909699101,229.8081854712218 128.71571906330064,229.93892881891225 129.43812709022313,230.06967215694021 129.91973244166002,230.06967215694021 130.76254180585966,230.20041548553854 131.24414715729654,230.06967215694021 131.60535117052495,229.93892881891225 131.84615384601057,229.93892881891225 132.20735785970464,229.93892881891225 133.05016722390428,229.67744211351965 134.01337792677805,229.28521198348608 134.61538461549208,229.41595536971 135.2173913042061,229.41595536971 135.81939799292013,229.41595536971 136.42140468209982,229.41595536971 138.22742474870756,229.15446858713403 139.07023411383852,228.89298176614102 139.91304347850382,229.15446858713403 140.39464882947505,229.15446858713403 140.75585284270346,229.28521198348608 141.11705685639754,229.41595536971 141.59866220736876,229.67744211351965 142.44147157203406,230.20041548553854 143.4046822739765,230.59264541324228 144.24749163910747,230.85413198312744 145.2107023410499,231.50784823927097 147.01672240812331,233.07676626858301 147.85953177232295,233.59973863593768 148.7023411374539,233.8612247618148 150.26755852811038,234.90716887824237 150.98996655503288,235.03791184944566 150.86956521729007,234.25345387810376 152.43478260887787,233.99196781008504 152.67558528389782,232.9460231527919 153.2775919730775,230.98487525363453 153.51839464902878,230.20041548553854 153.63879598630592,229.54669874650426 153.75919732404873,228.23926454386674 153.63879598630592,227.58554708072916 153.75919732404873,226.40885503788013 153.8795986622572,226.01662418304477 153.8795986622572,225.4936495750444 153.75919732404873,224.57844363851473 153.3979933108203,223.53249341715127 153.63879598630592,222.61728646676056 153.2775919730775,222.22505477140658 152.79598662210628,221.9635669265408 152.9163879598491,220.91761515988037 153.1571906353347,220.13315092946868 153.0367892975919,219.08719808084425 153.0367892975919,218.56422142498195 153.63879598630592,217.77975615102332 153.3979933108203,214.5111471004784 153.2775919730775,213.9881690921029 153.1571906353347,212.81146800832357 153.2775919730775,211.6347661417676 153.3979933108203,211.2425320125185 153.51839464902878,210.85029779619072 153.75919732404873,210.1965739094885 153.8795986622572,208.7583805079339 154.0,207.71242093655746 154.0,205.4897547942819 153.63879598630592,204.70528372447006 153.2775919730775,204.18230281828437 153.0367892975919,203.65932175749913 152.555183946155,202.8748498762725 151.83277592016384,203.13634054211434 150.86956521729007,202.8748498762725 150.50836120406166,202.6133591720136 150.02675585262477,202.22112304298207 149.18394648795947,202.22112304298207 148.46153846150264,201.5673959683627 148.10033444780856,201.30590507073794 147.61872909683734,200.91366865194868 146.89632106991485,200.7829231597716 145.81270902976394,200.65217765804846 145.2107023410499,200.91366865194868 144.60869565233588,201.30590507073794 144.0066889631562,201.69814140256494 142.92307692300528,201.82888682745397 141.83946488285437,201.30590507073794 140.635451504495,201.04441413469613 140.03344481578097,201.04441413469613 139.55183946480975,200.91366865194868 138.94983277563006,200.65217765804846 138.58862876240164,200.52143214654643 137.50501672225073,200.25994109432213 136.7826086957939,200.25994109432213 136.42140468209982,200.3906866251491 135.33779264241457,200.25994109432213 134.25418060226366,200.1291955539491 134.01337792677805,199.73695887438953 133.77257525036111,199.47546770621557 132.68896321067587,199.99845000356436 131.96655518421903,200.65217765804846 130.5217391308397,201.30590507073794 130.04013377893716,201.43665052461438 129.43812709022313,201.43665052461438 128.8361204015091,201.43665052461438 128.1137123745866,201.43665052461438 126.90969899622723,201.17515960743185 126.42809364572167,200.91366865194868 125.34448160557076,200.91366865194868 124.38127090316266,200.91366865194868 123.41806020075455,200.65217765804846 122.81605351157486,200.65217765804846 121.97324414737523,200.65217765804846 121.49163879593834,200.65217765804846 120.28762541804463,200.7829231597716 119.08361204015091,200.91366865194868 118.48160535143688,200.91366865194868 117.87959866272286,200.91366865194868 116.67558528436348,200.7829231597716 115.71237458195537,201.82888682745397 115.35117056872696,202.09037764754612 115.11036789324135,202.6133591720136 114.74916388001293,203.00559521396644 114.26755852811038,203.92081230715849 114.14715719083324,204.44379329087678 113.90635451488197,204.96677411999553 113.78595317713916,205.4897547942819 113.54515050165355,206.01273531408515 113.54515050165355,206.53571567952167 112.94314381247386,207.4509309468558 112.82274247473106,207.9739108873764 112.46153846150264,208.62763559515588 112.34113712375984,209.1506151879439 112.22073578601703,210.4580634930171 112.10033444827422,210.9810425445903 111.73913043458015,212.15774484560825 111.37792642135173,213.33444636443164 111.25752508360893,213.9881690921029 111.01672240812331,214.5111471004784 111.01672240812331,215.16486939333845 110.89632107038051,215.6878470540978 110.77591973217204,216.2108245601412 110.89632107038051,217.38752338360064 111.01672240812331,218.0412446144037 111.13712374540046,218.56422142498195 111.13712374540046,219.21794222097378 111.01672240812331,220.52538308827206 110.77591973217204,221.9635669265408 111.618729097303,223.40174959623255 111.73913043458015,224.44769989477936 111.85953177232295,224.97067481197882 111.97993311053142,225.4936495750444 112.10033444827422,226.01662418304477 111.97993311053142,227.19331648666412 111.97993311053142,227.71629059268162 112.34113712375984,228.89298176614102 112.46153846150264,229.41595536971 112.58193979924545,230.06967215694021 112.58193979924545,231.11561851459555 112.58193979924545,231.6385914614657 112.58193979924545,232.1615642538527 112.34113712375984,233.07676626858301 112.10033444827422,233.46899555856362 111.73913043458015,234.5149399068905 111.73913043458015,235.5608836376341 111.97993311053142,236.47608389426023 112.34113712375984,236.86831243080087 112.58193979924545,237.3912836778909 112.34113712375984,238.69871111924294 111.97993311053142,239.48316712013911 111.85953177232295,240.13688018918037 111.73913043458015,240.790593016427 111.618729097303,241.3135631044861 111.37792642135173,241.8365330377128 111.13712374540046,242.88247244094964 111.37792642135173,243.27469955780543 111.618729097303,243.79766891163308 111.73913043458015,244.18989582569338 111.97993311053142,244.58212265290786 111.73913043458015,245.75880261254497 111.85953177232295,246.93548178987112 111.85953177232295,247.98141817981377 111.618729097303,249.02735395147465 110.89632107038051,249.55032160540577 110.17391304345801,250.0732891050866 109.33110367879272,250.204030955676 108.127090300899,249.02735395147465 105.71906354511157,248.50438614282757 104.99665551818907,248.50438614282757 104.39464882947505,248.50438614282757 103.91304347803816,248.50438614282757 103.43143812706694,248.37364416674245 102.82943143788725,248.37364416674245 101.745819398202,248.24290218076203 100.78260869532824,248.37364416674245 99.81939799292013,248.11216018500272 100.30100334482267,247.85067616507877 100.78260869532824,246.93548178987112 100.54180601984262,246.54325548443012 100.54180601984262,246.15102909191046 101.02341137174517,245.49731824465562 101.14381270902231,245.75880261254497 100.42140468209982,246.80473969771992 100.30100334482267,246.67399759578984 100.54180601984262,246.80473969771992 100.30100334482267,246.93548178987112 101.14381270902231,247.06622387247626 102.10702341143042,247.06622387247626 103.07023411383852,247.85067616507877 103.31103678932413,248.76587006647605 103.07023411383852,248.76587006647605 102.82943143788725,248.89661201369017 102.70903010061011,248.89661201369017 102.34782608691603,248.89661201369017 101.98662207368761,248.50438614282757 101.6254180604592,248.24290218076203 101.26421404676512,248.11216018500272 100.78260869532824,247.71993414021563 100.78260869532824,247.71993414021563 100.66220735805109,247.32770800834987 100.78260869532824,247.1969659451861 100.9030100335367,246.93548178987112 101.38461538450792,247.45845006220043 101.26421404676512,247.71993414021563 101.02341137174517,248.37364416674245 100.66220735805109,248.76587006647605 100.66220735805109,248.89661201369017 100.78260869532824,248.76587006647605 100.66220735805109,248.63512810936663 100.66220735805109,248.50438614282757 100.78260869532824,248.50438614282757 100.78260869532824,248.63512810936663 100.9030100335367,248.63512810936663 100.9030100335367,248.76587006647605 100.9030100335367,248.63512810936663 101.02341137174517,248.63512810936663 101.02341137174517,248.76587006647605 101.14381270902231,248.89661201369017 101.50501672225073,249.02735395147465 101.14381270902231,249.28883779782336 100.9030100335367,249.419579706504 100.30100334482267,249.55032160540577 99.9397993311286,249.55032160540577 99.69899665564299,249.55032160540577 98.85618729097769,249.55032160540577 98.49498327774927,249.6810634948779 98.13377926405519,249.6810634948779 96.80936454841867,249.419579706504 95.84615384647623,249.8118053744547 94.28093645442277,249.419579706504 93.55852842796594,249.15809587959666 91.63210702314973,249.28883779782336 90.9096989966929,249.55032160540577 90.18729097023606,249.6810634948779 89.70568561926484,249.94254724448547 89.2240802673623,249.94254724448547 87.53846153849736,250.0732891050866 87.05685618752614,250.0732891050866 86.45484949834645,249.8118053744547 85.85284280963242,249.8118053744547 85.37123745772988,249.8118053744547 84.40802675578743,249.6810634948779 84.04682274255902,249.55032160540577 83.56521739112213,249.28883779782336 82.48160535143688,248.89661201369017 81.8795986622572,248.89661201369017 80.55518394662067,248.76587006647605 80.43478260887787,248.24290218076203 80.1939799329266,247.85067616507877 79.83277591969818,247.71993414021563 79.35117056872696,247.45845006220043 78.62876254180446,246.80473969771992 78.02675585309044,246.93548178987112 77.66555183986202,247.06622387247626 77.30434782616794,247.06622387247626 77.30434782616794,247.06622387247626 77.42474916391075,247.1969659451861 77.30434782616794,247.06622387247626 76.10033444780856,247.45845006220043 74.89632107038051,247.06622387247626 74.29431438120082,246.93548178987112 73.8127090302296,246.67399759578984 73.45150501653552,246.54325548443012 72.72909699007869,246.54325548443012 71.64548494946212,246.54325548443012 70.08026755880564,246.281771232374 69.35785953188315,245.10509162035305 69.11705685639754,244.58212265290786 68.87625418044627,243.92841122613754 68.39464882947505,242.88247244094964 67.55183946480975,241.9672754969215 67.19063545158133,241.18282059661578 66.82943143788725,240.9213355529355 66.4682274251245,240.65985047013965 66.10702341189608,240.2676227738848 65.50501672225073,239.87539499055129 65.02341137174517,239.3524244776927 64.18060200661421,238.69871111924294 63.698996655642986,238.4372257081559 63.33779264241457,238.17574025830254 62.01337792677805,236.34534102934413 61.05016722390428,235.03791184944566 60.56856187293306,234.5149399068905 60.08695652196184,233.99196781008504 59.24414715729654,233.20750937482808 59.12374581955373,233.20750937482808 59.12374581955373,232.9460231527919 59.003344481345266,232.68453689164016 58.28093645488843,232.03082107030787 58.04013377940282,231.76933467399795 57.678929766174406,231.37710500729736 56.7157190637663,230.85413198312744 56.23411371232942,230.59264541324228 55.87290969863534,230.3311588044744 55.27090300992131,229.8081854712218 54.54849498299882,229.02372518158518 53.94648829428479,228.76223834080156 53.46488294284791,228.50075146183372 52.86287625413388,228.23926454386674 52.38127090316266,228.10852107068058 51.41806020028889,227.324060027604 50.93645484978333,227.06257293571252 50.33444816060364,226.27811142930295 50.575250836554915,225.62439324136358 50.575250836554915,224.70918737258762 50.09364548511803,224.3169561411487 49.130434782709926,224.18621237808838 48.76923076948151,223.9247248226311 48.28762541804463,223.79398103058338 47.68561872886494,222.61728646676056 47.44481605384499,222.22505477140658 46.8428093646653,221.30984714475926 46.48160535097122,220.91761515988037 46.24080267548561,220.7868711457122 46.0,220.13315092946868 46.12040133820847,219.74091868370306 46.24080267548561,219.21794222097378 46.36120401369408,218.6949656032957 46.48160535097122,218.0412446144037 46.48160535097122,217.5182676492259 46.963210702408105,216.34156891261227 47.08361204015091,215.81859144510236 47.204013377893716,215.29561382322572 47.204013377893716,214.90338050527498 47.08361204015091,213.85742456594016 47.08361204015091,212.81146800832357 47.32441471563652,212.41923413984478 47.565217391587794,211.8962555133039 47.68561872886494,211.37327673193067 47.806020067073405,210.71955303824507 47.92642140435055,210.1965739094885 48.16722408076748,209.41210492618848 48.28762541804463,208.88912541104946 48.40802675578743,208.49689067306463 48.64882943127304,207.9739108873764 48.64882943127304,207.32018593756948 48.88963210768998,206.7972058042651 49.01003344450146,206.27422551624477 49.130434782709926,205.22826447628904 49.25083612045273,204.70528372447006 49.491638796404004,204.18230281828437 49.491638796404004,203.52857646800112 49.61204013368115,203.00559521396644 49.61204013368115,202.09037764754612 49.732441471423954,201.17515960743185 50.21404682286084,200.65217765804846 50.45484949834645,200.1291955539491 51.17725752526894,199.21397649985738 52.02006688993424,198.42950264795218 52.140468227211386,197.90651988692116 52.38127090316266,197.38353697105777 53.22408026782796,196.99129968322814 53.826086956541985,197.12204545550048 54.30769230797887,197.25279121811036 54.909698996692896,197.38353697105777 55.27090300992131,197.25279121811036 55.75250836182386,197.25279121811036 56.23411371232942,197.38353697105777 56.7157190637663,197.38353697105777 58.16053511714563,196.46831649693195 58.40133779263124,196.07607900572475 59.003344481345266,195.55309554934502 59.24414715729654,195.55309554934502 60.32775919698179,195.55309554934502 60.56856187293306,195.16085785545874 61.05016722390428,194.50712817243766 61.531772575341165,194.11489024676848 62.01337792677805,193.72265223390423 62.25418060226366,193.3304141345434 63.0969899664633,192.54593767446931 63.33779264241457,192.4151915636612 63.698996655642986,192.2844454437727 64.06020066840574,192.1536993138725 64.54180602030829,192.02295317465905 65.38461538450792,190.45399874739815 64.9030100335367,190.58474500267766 64.42140468256548,191.23847613472026 63.81939799338579,191.63071469822899 63.217391304671764,191.63071469822899 62.85618729097769,192.02295317465905 62.374581940006465,192.2844454437727 61.65217391308397,192.80742986616679 61.17056856211275,193.06892201991286 60.448160535190254,194.11489024676848 59.72575250826776,195.0301119381329 58.762541806325316,195.2916037631221 58.28093645488843,195.16085785545874 57.79933110391721,195.0301119381329 56.7157190637663,194.899366011261 56.23411371232942,195.16085785545874 55.75250836182386,195.16085785545874 55.39130434766412,195.16085785545874 54.78929765895009,195.16085785545874 53.94648829428479,194.899366011261 54.428093645721674,193.98414425225928 54.909698996692896,193.59190621052403 55.27090300992131,193.19966808194295 55.63210702361539,192.80742986616679 55.99331103684381,192.54593767446931 56.354515050537884,192.2844454437727 56.7157190637663,191.89220702531748 57.31772575248033,191.23847613472026 57.79933110391721,190.97698371089064 58.28093645488843,190.58474500267766 58.88294314453378,189.80026732536498 59.605351170524955,189.14653566200286 59.96655518421903,188.88504292897414 60.32775919698179,188.75429654796608 60.688963210675865,188.36205734708346 61.17056856211275,188.1005644982215 61.41137123759836,187.83907161059324 61.65217391308397,187.44683220679872 62.374581940006465,186.79309967404697 64.06020066840574,186.2701134736417 65.26421404676512,185.7471271189861 65.745819398202,185.61638050619513 66.22742474917322,185.35488725139294 66.58862876240164,185.22414060973097 67.07023411430418,185.0933939581737 67.55183946480975,184.96264729683753 68.51505016721785,184.96264729683753 69.71906354511157,184.4396605557995 70.20066889654845,184.17816712718923 70.68227424751967,183.7859269118635 72.48829431459308,182.60920574434567 73.21070234151557,182.47845889965538 73.57190635474399,182.47845889965538 74.05351170524955,182.3477120451862 74.65551839442924,182.08621830760967 75.01672240812331,181.82472453126684 76.10033444780856,181.56323071639054 76.70234113698825,180.2557610614458 76.3411371242255,179.99426701467019 76.58193979924545,180.2557610614458 76.94314381293952,180.51725506957155 76.94314381293952,180.64800205954816 76.94314381293952,180.64800205954816 77.06354515068233,180.51725506957155 77.30434782616794,180.51725506957155 77.30434782616794,180.51725506957155 77.18394648795947,180.38650807051454 77.06354515068233,180.51725506957155 76.82274247473106,180.51725506957155 76.46153846150264,180.64800205954816 76.22073578601703,181.0402429702226 76.70234113698825,181.43248379405122 76.82274247473106,181.43248379405122 76.58193979924545,181.69397762860171 76.3411371242255,181.9554714243859 75.73913043504581,181.9554714243859 75.49832775909454,182.08621830760967 75.01672240812331,182.21696518128738 74.53511705715209,182.47845889965538 73.57190635474399,182.60920574434567 72.60869565233588,183.13219302648213 72.12709030136466,183.39368660969194 71.76588628767058,183.52443338674493 71.04347826074809,183.9166736600455 70.56187290977687,183.7859269118635 69.95986622059718,183.7859269118635 69.35785953188315,183.7859269118635 68.2742474921979,183.65518015401904 67.67224080301821,184.30891384650022 67.31103678932413,184.4396605557995 66.82943143788725,184.70115394564345 66.22742474917322,185.61638050619513 65.745819398202,185.7471271189861 65.14381270902231,185.87787372223102 64.30100334482267,186.5316065932857 63.33779264241457,187.05459271615837 62.374581940006465,187.44683220679872 61.89297658903524,187.9698180591222 61.531772575341165,188.49280375696253 61.290969899855554,188.88504292897414 60.688963210675865,189.4080283564981 60.207357860170305,189.93101362907328 59.72575250826776,190.58474500267766 59.364548495039344,190.84623748459853 59.12374581955373,191.23847613472026 58.521739130374044,191.63071469822899 58.04013377940282,192.02295317465905 57.55852842796594,192.2844454437727 55.75250836182386,193.72265223390423 55.51170568540692,194.11489024676848 54.78929765895009,195.0301119381329 55.27090300992131,195.81458729691803 56.23411371232942,195.81458729691803 56.7157190637663,195.9453331560362 57.19732441473752,195.81458729691803 57.678929766174406,195.81458729691803 58.28093645488843,195.9453331560362 58.762541806325316,195.9453331560362 59.364548495039344,195.81458729691803 60.32775919698179,195.55309554934502 61.05016722390428,195.68384142778814 61.65217391308397,195.9453331560362 62.25418060226366,195.9453331560362 63.458193979691714,196.72980810934678 64.66220735758543,197.12204545550048 65.26421404676512,197.25279121811036 65.745819398202,197.51428271469194 66.70903010014445,197.6450284483144 67.67224080301821,197.6450284483144 68.75585284316912,198.16801128652878 69.35785953188315,198.69099397026002 70.44147157203406,199.08323088183533 71.04347826074809,199.21397649985738 72.36789297638461,199.21397649985738 73.0903010033071,199.3447221077513 74.17391304345801,198.95248525426723 74.53511705715209,199.08323088183533 75.01672240812331,198.95248525426723 76.10033444780856,198.0372655915562 77.06354515068233,197.51428271469194 77.42474916391075,197.51428271469194 78.26755852857605,196.72980810934678 78.62876254180446,196.20682484598365 78.98996655549854,195.68384142778814 79.23076923051849,194.50712817243766 79.47157190646976,193.3304141345434 79.95317725744098,192.93817594798747 80.07357859564945,192.4151915636612 80.43478260887787,191.89220702531748 80.43478260887787,190.45399874739815 80.55518394662067,189.4080283564981 80.79598662210628,189.01578930031974 80.91638795938343,188.49280375696253 80.91638795938343,187.31608571938705 80.79598662210628,186.79309967404697 81.0367892975919,185.61638050619513 81.2775919730775,185.0933939581737 81.39799331128597,184.57040725566912 82.12040133820847,183.7859269118635 82.60200668917969,183.52443338674493 83.08361204015091,183.52443338674493 83.44481605337933,183.2629398230929 83.8060200670734,183.2629398230929 94.40133779263124,179.6020258718636 94.76254180585966,179.6020258718636 95.12374581955373,179.47127880505286 95.60535117052495,179.34053172857966 95.96655518421903,179.34053172857966 96.32775919744745,179.20978464209475 96.80936454841867,179.20978464209475 97.89297658856958,178.948290440836 98.37458194000646,178.68679620069452 98.85618729097769,178.42530192201957 99.45819397969171,178.42530192201957 99.9397993311286,178.29455476813018 100.42140468209982,178.29455476813018 101.50501672225073,177.9023132484872 102.58862876240164,177.77156605618075 103.07023411383852,177.9023132484872 104.27424749126658,177.640818853979 105.35785953188315,177.3793244205881 106.20066889608279,176.4640935997013 107.28428093669936,176.0718516743509 107.76588628767058,176.0718516743509 108.36789297638461,175.94110434688628 109.33110367879272,175.54886230558623 109.57190635474399,175.15662017744035 109.9331103679724,174.89512537652627 111.01672240812331,174.50288310367614 111.49832775909454,174.24138820671942 111.97993311053142,174.11064074363094 112.82274247473106,173.4569032837171 113.78595317713916,173.0646606917726 114.38795986631885,173.19540823216084 114.98996655503288,173.32615576300304 115.71237458195537,173.32615576300304 116.3143812706694,173.4569032837171 117.51839464856312,173.0646606917726 118.1204013377428,172.9339131420711 118.60200668871403,172.6724180127494 119.08361204015091,172.41092284524348 119.92642140481621,172.01868002151605 120.88963210722432,171.49568945448846 121.37123745819554,171.49568945448846 121.73244147095829,171.36494178860448 122.21404682286084,171.23419411317445 122.69565217383206,171.23419411317445 123.29765886301175,171.10344642784912 123.77926421398297,170.97269873309415 124.86287625366822,169.7959690442076 125.82608695654199,169.92671682615764 126.54849498299882,170.58045559038874 126.66889632120728,171.10344642784912 126.90969899622723,171.6264371109428 126.66889632120728,172.6724180127494 126.06688963249326,172.9339131420711" stroke="#ffff00" stroke-linecap="round" stroke-linejoin="round" stroke-width="0.5"><title>2020-12-15 4.4km</title></polyline></svg>